<?xml version="1.0" encoding="utf-8"?>
<!-- Generator: Adobe Illustrator 16.0.0, SVG Export Plug-In . SVG Version: 6.00 Build 0)  -->
<!DOCTYPE svg PUBLIC "-//W3C//DTD SVG 1.1//EN" "http://www.w3.org/Graphics/SVG/1.1/DTD/svg11.dtd">
<svg version="1.1" id="Layer_1" xmlns="http://www.w3.org/2000/svg" xmlns:xlink="http://www.w3.org/1999/xlink" x="0px" y="0px"
	 width="1175px" height="483px" viewBox="0 0 1175 483" enable-background="new 0 0 1175 483" xml:space="preserve">
<g>
	<defs>
		<rect id="SVGID_1_" x="0" y="0" width="1175" height="483"/>
	</defs>
	<clipPath id="SVGID_2_">
		<use xlink:href="#SVGID_1_"  overflow="visible"/>
	</clipPath>
	<g clip-path="url(#SVGID_2_)">
		<path fill="#009999" d="M1175,0H0v483h1175V0z"/>
	</g>
</g>
<path fill="#FFFFFF" d="M1013.525,79.264h-20.438h-24.045v24.045v5.089v29.058c0,13.28,10.766,24.045,24.045,24.045H1175V79.264
	H1013.525z"/>
<g>
	<defs>
		<rect id="SVGID_3_" x="0" y="275.515" width="1175" height="207.484"/>
	</defs>
	<linearGradient id="SVGID_4_" gradientUnits="userSpaceOnUse" x1="587.4998" y1="275.5154" x2="587.4998" y2="482.9998">
		<stop  offset="0" style="stop-color:#0C9999"/>
		<stop  offset="0.1492" style="stop-color:#1C9E9E"/>
		<stop  offset="0.4409" style="stop-color:#46ABAC"/>
		<stop  offset="0.8429" style="stop-color:#89BFC3"/>
		<stop  offset="1" style="stop-color:#A5C8CC"/>
	</linearGradient>
	<use xlink:href="#SVGID_3_"  overflow="visible" fill="url(#SVGID_4_)"/>
	<clipPath id="SVGID_5_">
		<use xlink:href="#SVGID_3_"  overflow="visible"/>
	</clipPath>
	<g clip-path="url(#SVGID_5_)">
		<linearGradient id="SVGID_6_" gradientUnits="userSpaceOnUse" x1="587.4998" y1="275.5154" x2="587.4998" y2="482.9998">
			<stop  offset="0" style="stop-color:#0C9999"/>
			<stop  offset="0.1492" style="stop-color:#1C9E9E"/>
			<stop  offset="0.4409" style="stop-color:#46ABAC"/>
			<stop  offset="0.8429" style="stop-color:#89BFC3"/>
			<stop  offset="1" style="stop-color:#A5C8CC"/>
		</linearGradient>
		<path fill="url(#SVGID_6_)" d="M1175,275.515H0V483h1175V275.515z"/>
	</g>
</g>
<path fill="#EF7D0A" d="M1105.344,351.538H973.465h-14.264h-78.44h-11.733h-13.805v13.805v2.922v16.683
	c0,7.624,6.181,13.804,13.805,13.804h90.174h14.264h120.146h11.733h13.805v-13.804v-2.922v-16.684
	C1119.149,357.718,1112.968,351.538,1105.344,351.538z"/>
<g>
	<path fill="#FFFFFF" d="M700.243,217.166c0,0.758-0.059,1.855-0.176,3.292c-0.118,1.437-0.177,2.521-0.177,3.252
		c0,1.411,0.196,2.658,0.588,3.742c0.196,0.497,0.496,0.816,0.901,0.96c0.404,0.144,1.025,0.216,1.861,0.216h0.176
		c1.293,0,2.246,0.64,2.86,1.92c0.17,0.353,0.255,0.751,0.255,1.195c0,0.888-0.298,1.626-0.892,2.214
		c-0.595,0.587-1.336,0.881-2.224,0.881c-1.646,0-3.026-0.196-4.144-0.587c-1.116-0.392-2.105-1.006-2.968-1.842
		c-0.731-0.731-1.257-1.583-1.577-2.557c-0.32-0.973-0.479-2.184-0.479-3.634v-0.294c0.052-1.397,0.078-3.161,0.078-5.29
		c0-5.433-0.131-9.671-0.392-12.714c-0.131-1.489-0.281-2.671-0.451-3.546l5.857-1.783c0.104,0.496,0.196,1.038,0.274,1.626
		c0.079,0.587,0.147,1.12,0.206,1.597s0.107,1.087,0.146,1.832c0.04,0.745,0.072,1.322,0.099,1.734
		c0.025,0.411,0.052,1.055,0.078,1.93s0.039,1.469,0.039,1.783s0.01,0.954,0.029,1.92c0.02,0.967,0.029,1.554,0.029,1.763V217.166z"
		/>
	<path fill="#FFFFFF" d="M709.608,231.741c-0.836,0.993-1.697,1.747-2.586,2.263c-0.888,0.516-2.037,0.793-3.447,0.833h-0.255
		c-0.889,0-1.626-0.287-2.214-0.862s-0.882-1.306-0.882-2.194c0-0.679,0.18-1.264,0.539-1.753s0.812-0.865,1.361-1.126
		c0.353-0.169,0.764-0.254,1.234-0.254c1.319,0,2.501-0.64,3.546-1.92c0.47-0.562,0.943-1.283,1.42-2.165
		c0.477-0.881,0.882-1.688,1.215-2.419c0.333-0.731,0.761-1.495,1.283-2.292c0.522-0.796,1.071-1.443,1.646-1.939
		c1.188-1.019,2.521-1.528,3.997-1.528h0.195c0.706,0.053,1.362,0.18,1.969,0.382c0.607,0.203,1.13,0.428,1.567,0.676
		s0.865,0.598,1.283,1.048c0.418,0.45,0.758,0.855,1.019,1.214c0.262,0.359,0.546,0.849,0.853,1.469
		c0.307,0.621,0.542,1.13,0.705,1.528s0.383,0.957,0.656,1.675c0.692,1.737,1.47,2.952,2.332,3.644
		c0.535,0.418,1.214,0.627,2.037,0.627c0.679,0,1.264,0.183,1.753,0.548c0.49,0.366,0.865,0.823,1.127,1.372
		c0.17,0.353,0.255,0.757,0.255,1.214c0,0.889-0.301,1.62-0.901,2.194s-1.346,0.862-2.233,0.862c-1.319,0-2.476-0.258-3.468-0.774
		c-0.992-0.516-1.927-1.211-2.802-2.086c-1.293,1.828-2.958,2.743-4.995,2.743c-1.79,0-3.808-0.588-6.054-1.763
		C710.744,232.434,710.026,232.029,709.608,231.741z M718.796,229.136c0.392,0,0.708-0.245,0.95-0.735
		c0.241-0.49,0.362-1.009,0.362-1.557c0-0.706-0.301-1.509-0.901-2.41c-0.928-1.411-2.076-2.116-3.447-2.116
		c-0.223,0-0.51,0.327-0.862,0.98c-0.065,0.104-0.353,0.672-0.862,1.704l-0.822,1.665c1.515,1.045,3.095,1.809,4.74,2.292
		C718.32,229.077,718.6,229.136,718.796,229.136z"/>
	<path fill="#FFFFFF" d="M725.898,233.965c-0.581-0.581-0.872-1.322-0.872-2.224s0.291-1.642,0.872-2.224
		c0.581-0.581,1.322-0.872,2.224-0.872h3.115c2.351,0,4.264-0.274,5.74-0.823c0.47-0.17,0.819-0.369,1.048-0.598
		s0.343-0.584,0.343-1.068c0-0.561-0.137-1.228-0.411-1.998c-0.235-0.666-0.517-1.352-0.843-2.057s-0.734-1.548-1.225-2.527
		c-0.489-0.979-0.8-1.606-0.931-1.88l5.584-2.743c1.358,2.338,2.331,5.152,2.919,8.443c0.183,1.019,0.274,1.861,0.274,2.527
		c0,1.319-0.235,2.527-0.706,3.624c-1.097,2.442-2.99,4.049-5.681,4.819c-1.241,0.313-2.894,0.47-4.957,0.47h-4.271
		C727.22,234.837,726.479,234.546,725.898,233.965z M736.487,241.302l-3.683,3.682l-3.801-3.78l3.762-3.781l3.722,3.723l3.684-3.683
		l3.8,3.781l-3.761,3.781L736.487,241.302z"/>
	<path fill="#FFFFFF" d="M748.358,234.896c0.274-4.95,0.425-8.287,0.451-10.011v-0.842c0-2.534-0.164-6.099-0.49-10.696
		c-0.261-3.5-0.489-5.832-0.686-6.994c-0.092-0.522-0.189-1.143-0.294-1.861l6.054-1.998c0.888,5.224,1.332,11.396,1.332,18.513
		c0,0.288-0.003,0.758-0.01,1.411c-0.007,0.653-0.01,1.156-0.01,1.508c0,4.036-0.098,7.379-0.294,10.031L748.358,234.896z"/>
	<path fill="#FFFFFF" d="M764.089,220.477c1.319,3.774,2.148,7.02,2.488,9.737c0.078,0.601,0.118,1.163,0.118,1.685
		c0,2.364-0.641,4.695-1.92,6.994c-2.391,4.336-6.328,7.855-11.813,10.559l-3.565-4.956c4.44-2.22,7.804-4.858,10.089-7.915
		c1.215-1.633,1.822-3.187,1.822-4.663c0-0.914-0.281-2.201-0.843-3.859c-0.405-1.162-1.084-2.828-2.037-4.996L764.089,220.477z"/>
	<path fill="#FFFFFF" d="M810.284,234.837c0.482,0.888,0.751,1.868,0.803,2.939c-0.104,2.272-1.13,4.212-3.075,5.818
		c-1.528,1.254-3.412,2.236-5.652,2.949c-2.24,0.711-4.659,1.067-7.258,1.067c-6.7,0-11.174-1.751-13.42-5.251
		c-1.397-2.22-2.097-4.799-2.097-7.738c0-2.416,0.226-4.617,0.676-6.602c0.451-1.985,1.101-4.049,1.949-6.191l5.035,2.096
		c-0.431,1.097-0.751,1.937-0.96,2.518c-0.209,0.582-0.45,1.345-0.725,2.292c-0.274,0.947-0.467,1.891-0.578,2.831
		s-0.166,1.959-0.166,3.056c0,4.519,3.428,6.778,10.285,6.778c1.736,0,3.773-0.248,6.112-0.744c1.775-0.379,3.088-0.921,3.938-1.626
		c0.431-0.353,0.646-0.771,0.646-1.253c0-0.118-0.405-0.366-1.215-0.745c-1.058-0.509-2.005-0.921-2.841-1.234
		c-0.418-0.13-0.892-0.254-1.42-0.372c-0.529-0.118-0.993-0.212-1.391-0.284c-0.399-0.072-0.921-0.167-1.567-0.284
		c-0.646-0.117-1.12-0.203-1.421-0.254l0.804-5.956h15.712c1.306,0,2.259,0.627,2.86,1.88c0.169,0.353,0.254,0.758,0.254,1.215
		c0,0.888-0.297,1.626-0.891,2.214c-0.595,0.587-1.336,0.881-2.224,0.881H810.284z"/>
	<path fill="#FFFFFF" d="M822.902,233.681c-2.743,0.771-6.133,1.156-10.168,1.156h-0.177c-0.9,0-1.642-0.294-2.224-0.881
		c-0.58-0.588-0.871-1.332-0.871-2.233c0-0.888,0.294-1.623,0.882-2.204c0.587-0.581,1.325-0.872,2.213-0.872h0.745
		c0.353,0,0.832-0.016,1.439-0.049c0.607-0.032,1.002-0.055,1.186-0.068c-0.928-1.606-1.391-3.331-1.391-5.172
		c0-1.528,0.283-2.909,0.852-4.144s1.335-2.275,2.302-3.125l-1.019-0.568l3.781-5.564c0.81,0.562,1.714,1.091,2.713,1.587
		c1,0.497,2.26,1.068,3.781,1.714s2.518,1.081,2.987,1.303c0.34,0.157,1.045,0.474,2.116,0.95c1.07,0.477,1.828,0.826,2.272,1.048
		s1.055,0.548,1.832,0.979c0.776,0.431,1.433,0.872,1.969,1.322c0.535,0.451,1.038,0.95,1.509,1.499
		c1.279,1.606,1.92,3.533,1.92,5.779c0,1.646-0.409,3.092-1.225,4.339c-0.816,1.248-1.891,2.27-3.223,3.066
		c-1.581,0.901-3.886,1.352-6.916,1.352C827.263,234.896,824.834,234.49,822.902,233.681z M822.999,227.431
		c1.293-0.144,2.285-0.61,2.978-1.4c0.692-0.791,1.038-1.891,1.038-3.301c0-0.731-0.411-1.541-1.233-2.429
		c-0.667-0.731-1.359-1.149-2.077-1.254c-0.013,0-0.046-0.003-0.098-0.01c-0.053-0.006-0.092-0.01-0.118-0.01
		c-0.771,0-1.58,0.536-2.429,1.606c-0.823,1.019-1.234,2.018-1.234,2.998c0,0.718,0.398,1.502,1.195,2.351
		C821.66,226.674,822.32,227.157,822.999,227.431z M832.167,222.299c0,1.515-0.489,3.252-1.469,5.211
		c-0.262,0.522-0.562,1.038-0.901,1.547h0.177c0.535,0,0.985-0.003,1.352-0.01c0.365-0.006,0.803-0.032,1.312-0.078
		c0.509-0.046,0.937-0.108,1.283-0.186c0.346-0.079,0.708-0.193,1.087-0.343c0.379-0.15,0.683-0.333,0.911-0.549
		s0.418-0.483,0.568-0.803c0.149-0.32,0.226-0.682,0.226-1.087c0-0.261-0.099-0.539-0.294-0.833
		c-0.196-0.294-0.376-0.512-0.539-0.656c-0.163-0.144-0.389-0.333-0.676-0.568c-0.875-0.718-1.888-1.397-3.037-2.038V222.299z"/>
	<path fill="#FFFFFF" d="M852.287,217.166c0,0.758-0.059,1.855-0.176,3.292c-0.118,1.437-0.177,2.521-0.177,3.252
		c0,1.411,0.196,2.658,0.588,3.742c0.196,0.497,0.496,0.816,0.901,0.96c0.404,0.144,1.025,0.216,1.861,0.216h0.176
		c1.293,0,2.246,0.64,2.86,1.92c0.17,0.353,0.255,0.751,0.255,1.195c0,0.888-0.298,1.626-0.892,2.214
		c-0.595,0.587-1.336,0.881-2.224,0.881c-1.646,0-3.026-0.196-4.144-0.587c-1.116-0.392-2.105-1.006-2.968-1.842
		c-0.731-0.731-1.257-1.583-1.577-2.557c-0.32-0.973-0.479-2.184-0.479-3.634v-0.294c0.052-1.397,0.078-3.161,0.078-5.29
		c0-5.433-0.131-9.671-0.392-12.714c-0.131-1.489-0.281-2.671-0.451-3.546l5.857-1.783c0.104,0.496,0.196,1.038,0.274,1.626
		c0.079,0.587,0.147,1.12,0.206,1.597s0.107,1.087,0.146,1.832c0.04,0.745,0.072,1.322,0.099,1.734
		c0.025,0.411,0.052,1.055,0.078,1.93s0.039,1.469,0.039,1.783s0.01,0.954,0.029,1.92c0.02,0.967,0.029,1.554,0.029,1.763V217.166z"
		/>
	<path fill="#FFFFFF" d="M869.684,231.291c-1.75,2.247-4.368,3.429-7.855,3.546h-6.387c-0.888,0-1.629-0.294-2.224-0.881
		c-0.594-0.588-0.892-1.326-0.892-2.214s0.298-1.626,0.892-2.214c0.595-0.587,1.336-0.881,2.224-0.881h6.642
		c1.332,0,2.618-0.575,3.859-1.724c0.313-0.3,0.502-0.62,0.568-0.96v-0.254c0-1.202-0.504-2.599-1.509-4.193
		c-1.868-2.964-4.428-5.701-7.68-8.208l0.529-5.387l18.004-7.542l2.272,5.387l-14.87,6.073c1.633,1.528,3.062,3.06,4.291,4.594
		c1.228,1.535,2.305,3.21,3.232,5.025c0.078,0.157,0.251,0.49,0.519,0.999s0.454,0.862,0.559,1.058s0.291,0.519,0.559,0.97
		s0.483,0.784,0.646,0.999s0.389,0.5,0.676,0.852c0.287,0.353,0.555,0.63,0.803,0.833s0.542,0.411,0.882,0.626
		c0.34,0.216,0.686,0.396,1.038,0.539c0.497,0.183,1.032,0.288,1.606,0.313h0.823c0.901,0,1.643,0.291,2.224,0.872
		c0.581,0.582,0.872,1.322,0.872,2.224s-0.291,1.643-0.872,2.224s-1.322,0.872-2.224,0.872h-0.156c-2.051,0-3.791-0.3-5.222-0.901
		C872.084,233.335,870.807,232.453,869.684,231.291z M858.106,202.179l14.987-6.25l1.077,2.332l-16.221,6.856L858.106,202.179z"/>
	<path fill="#FFFFFF" d="M878.833,234.856c-0.836-0.039-1.534-0.353-2.097-0.94c-0.562-0.588-0.842-1.306-0.842-2.155
		c0-1.254,0.601-2.188,1.802-2.801c0.379-0.196,0.758-0.3,1.137-0.313c1.006,0,1.832-0.258,2.479-0.774
		c0.646-0.516,1.224-1.218,1.733-2.106c0.692-1.228,1.424-3.337,2.194-6.328l5.211,0.94c-0.053,0.249-0.206,0.872-0.46,1.871
		c-0.255,0.999-0.438,1.848-0.549,2.547c-0.111,0.699-0.167,1.407-0.167,2.125c0,1.28,0.359,1.92,1.078,1.92
		c1.045,0,1.972-0.607,2.781-1.822c1.098-1.685,1.881-4.199,2.352-7.542l4.976,0.842c-0.026,0.431-0.107,1.231-0.245,2.4
		c-0.137,1.169-0.205,2.086-0.205,2.752c0,2.272,0.776,3.409,2.331,3.409c0.627,0,1.188-0.144,1.685-0.431s0.889-0.653,1.176-1.097
		c0.196-0.313,0.294-0.666,0.294-1.058c0-1.123-0.386-2.677-1.156-4.663c-0.392-1.005-1.006-2.377-1.841-4.114l4.858-2.723
		c1.658,3.618,2.703,6.713,3.134,9.286c0.144,0.889,0.216,1.711,0.216,2.469c0,2.769-0.751,4.872-2.253,6.308
		s-3.657,2.175-6.465,2.214c-2.442,0-4.323-0.889-5.643-2.665c-0.653,0.862-1.434,1.512-2.341,1.949
		c-0.908,0.438-2.047,0.676-3.419,0.715h-0.234c-2.09,0-3.774-0.889-5.055-2.665c-1.332,1.632-3.369,2.449-6.112,2.449H878.833z
		 M897.209,211.053l-3.683,3.683l-3.801-3.781l3.761-3.781l3.723,3.722l3.684-3.683l3.8,3.781l-3.761,3.781L897.209,211.053z
		 M900.716,205.333l-3.487,3.487l-3.507-3.506l3.487-3.487L900.716,205.333z"/>
	<path fill="#FFFFFF" d="M912.255,242.615c5.472-1.098,9.43-2.907,11.872-5.427c0.744-0.758,1.273-1.542,1.587-2.351
		c-1.438,0-2.721-0.068-3.85-0.206c-1.13-0.137-2.218-0.392-3.263-0.764c-1.045-0.372-1.913-0.862-2.605-1.469
		s-1.244-1.397-1.655-2.371c-0.411-0.973-0.617-2.106-0.617-3.399c0-2.024,0.529-4.055,1.587-6.093
		c0.353-0.679,0.692-1.234,1.019-1.665c1.594-1.985,3.436-2.978,5.525-2.978c2.207,0,4.198,0.967,5.975,2.899
		c2.678,3.004,4.017,6.851,4.017,11.539c0,5.315-2.019,9.665-6.054,13.048c-3.266,2.756-7.295,4.506-12.088,5.25L912.255,242.615z
		 M924.538,224.297c-0.327-0.549-0.734-1.051-1.225-1.509c-0.489-0.457-0.996-0.686-1.519-0.686c-0.313,0-0.606,0.092-0.881,0.274
		c-0.706,0.457-1.28,1.241-1.725,2.351c-0.209,0.523-0.313,1-0.313,1.43c0,1.633,1.698,2.449,5.094,2.449h1.567
		c0.026,0,0.062,0.003,0.107,0.01c0.046,0.006,0.075,0.01,0.089,0.01h0.156c0.104,0,0.196-0.006,0.274-0.02
		C925.734,226.818,925.192,225.381,924.538,224.297z"/>
	<path fill="#FFFFFF" d="M951.573,231.761c0,0.901-0.294,1.639-0.882,2.214s-1.339,0.862-2.253,0.862
		c-1.136,0-2.103-0.163-2.899-0.49c-0.562,3.083-2.076,5.988-4.545,8.718c-2.233,2.468-5.146,4.597-8.737,6.386l-3.585-4.956
		c3.147-1.606,5.779-3.35,7.895-5.23c1.489-1.332,2.56-2.769,3.213-4.31c0.313-0.745,0.471-1.502,0.471-2.272v-0.176
		c0-0.026-0.004-0.065-0.01-0.118c-0.007-0.052-0.01-0.091-0.01-0.118c0-0.026-0.004-0.052-0.01-0.078
		c-0.007-0.026-0.01-0.046-0.01-0.059c-0.079-0.587-0.187-1.178-0.323-1.773c-0.138-0.594-0.265-1.104-0.383-1.528
		c-0.117-0.424-0.297-0.95-0.538-1.577c-0.242-0.627-0.422-1.081-0.539-1.361s-0.336-0.78-0.656-1.499
		c-0.32-0.718-0.525-1.188-0.617-1.41l5.662-2.469c0.353,1.058,0.637,1.884,0.852,2.479c0.216,0.594,0.5,1.263,0.853,2.008
		s0.718,1.391,1.097,1.939c0.771,1.136,1.686,1.705,2.743,1.705h0.098c0.889,0,1.629,0.297,2.224,0.891
		C951.277,230.132,951.573,230.873,951.573,231.761z"/>
	<path fill="#FFFFFF" d="M965.914,223.709c0,1.332-0.16,2.531-0.48,3.595c-0.32,1.065-0.757,1.976-1.312,2.733
		c-0.555,0.758-1.261,1.42-2.115,1.989c-0.855,0.568-1.751,1.022-2.685,1.361c-0.934,0.34-2.018,0.617-3.252,0.833
		c-1.234,0.216-2.433,0.366-3.595,0.451s-2.469,0.14-3.918,0.167h-0.333c-0.889,0-1.626-0.294-2.214-0.881
		c-0.588-0.588-0.882-1.326-0.882-2.214c0-0.901,0.298-1.642,0.892-2.224c0.595-0.581,1.342-0.872,2.243-0.872
		c4.741,0,8.417-0.366,11.029-1.097c0.614-0.169,1.104-0.379,1.47-0.627c-1.032,0.118-2.012,0.176-2.938,0.176
		c-0.079,0-0.196-0.003-0.353-0.01c-0.157-0.006-0.274-0.01-0.354-0.01c-3.343-0.118-5.557-0.842-6.641-2.174v0.02
		c-0.967-1.254-1.45-2.769-1.45-4.545c0-0.587,0.039-1.136,0.118-1.646c0.404-2.233,1.182-4.062,2.331-5.485
		c1.397-1.868,3.128-2.801,5.191-2.801c2.024,0,3.879,0.895,5.563,2.684c1.711,1.946,2.848,4.48,3.409,7.602
		C965.823,221.75,965.914,222.743,965.914,223.709z M955.904,207.978l-4.35-4.349l4.35-4.349l4.349,4.349L955.904,207.978z
		 M958.998,218.439c-0.705-1.188-1.488-1.783-2.351-1.783c-0.326,0-0.634,0.092-0.921,0.274c-0.496,0.301-0.908,0.718-1.234,1.254
		s-0.489,1.143-0.489,1.822c0,0.301,0.065,0.559,0.195,0.774c0.131,0.215,0.274,0.382,0.432,0.5
		c0.156,0.118,0.401,0.219,0.734,0.304s0.594,0.137,0.783,0.157s0.493,0.049,0.911,0.088c0.692,0.066,1.358,0.098,1.999,0.098
		c0.392,0,0.764-0.02,1.116-0.059C959.9,220.431,959.508,219.288,958.998,218.439z"/>
	<path fill="#FFFFFF" d="M989.56,220.477c1.319,3.774,2.148,7.02,2.488,9.737c0.078,0.601,0.118,1.163,0.118,1.685
		c0,2.364-0.641,4.695-1.92,6.994c-2.391,4.336-6.328,7.855-11.813,10.559l-3.565-4.956c4.44-2.22,7.804-4.858,10.089-7.915
		c1.215-1.633,1.822-3.187,1.822-4.663c0-0.914-0.281-2.201-0.843-3.859c-0.405-1.162-1.084-2.828-2.037-4.996L989.56,220.477z"/>
	<path fill="#FFFFFF" d="M996.181,234.896c0.274-4.95,0.425-8.287,0.451-10.011v-0.842c0-2.534-0.164-6.099-0.49-10.696
		c-0.261-3.5-0.489-5.832-0.686-6.994c-0.092-0.522-0.189-1.143-0.294-1.861l6.054-1.998c0.888,5.224,1.332,11.396,1.332,18.513
		c0,0.288-0.003,0.758-0.01,1.411c-0.007,0.653-0.01,1.156-0.01,1.508c0,4.036-0.098,7.379-0.294,10.031L996.181,234.896z"/>
	<path fill="#FFFFFF" d="M1020.121,231.761c0,0.901-0.294,1.639-0.882,2.214s-1.339,0.862-2.253,0.862
		c-1.136,0-2.103-0.163-2.899-0.49c-0.562,3.083-2.076,5.988-4.545,8.718c-2.233,2.468-5.146,4.597-8.737,6.386l-3.585-4.956
		c3.147-1.606,5.779-3.35,7.895-5.23c1.489-1.332,2.56-2.769,3.213-4.31c0.313-0.745,0.471-1.502,0.471-2.272v-0.176
		c0-0.026-0.004-0.065-0.01-0.118c-0.007-0.052-0.01-0.091-0.01-0.118c0-0.026-0.004-0.052-0.01-0.078
		c-0.007-0.026-0.01-0.046-0.01-0.059c-0.079-0.587-0.187-1.178-0.323-1.773c-0.138-0.594-0.265-1.104-0.383-1.528
		c-0.117-0.424-0.297-0.95-0.538-1.577c-0.242-0.627-0.422-1.081-0.539-1.361s-0.336-0.78-0.656-1.499
		c-0.32-0.718-0.525-1.188-0.617-1.41l5.662-2.469c0.353,1.058,0.637,1.884,0.852,2.479c0.216,0.594,0.5,1.263,0.853,2.008
		s0.718,1.391,1.097,1.939c0.771,1.136,1.686,1.705,2.743,1.705h0.098c0.889,0,1.629,0.297,2.224,0.891
		C1019.824,230.132,1020.121,230.873,1020.121,231.761z M1008.347,217.382l-4.349-4.349l4.349-4.349l4.35,4.349L1008.347,217.382z"
		/>
	<path fill="#FFFFFF" d="M1034.521,223.709c0,1.332-0.16,2.531-0.48,3.595c-0.32,1.065-0.757,1.976-1.312,2.733
		c-0.555,0.758-1.261,1.42-2.115,1.989c-0.855,0.568-1.751,1.022-2.685,1.361c-0.934,0.34-2.018,0.617-3.252,0.833
		c-1.234,0.216-2.433,0.366-3.595,0.451s-2.469,0.14-3.918,0.167h-0.333c-0.889,0-1.626-0.294-2.214-0.881
		c-0.588-0.588-0.882-1.326-0.882-2.214c0-0.901,0.298-1.642,0.892-2.224c0.595-0.581,1.342-0.872,2.243-0.872
		c4.741,0,8.417-0.366,11.029-1.097c0.614-0.169,1.104-0.379,1.47-0.627c-1.032,0.118-2.012,0.176-2.938,0.176
		c-0.079,0-0.196-0.003-0.353-0.01c-0.157-0.006-0.274-0.01-0.354-0.01c-3.343-0.118-5.557-0.842-6.641-2.174v0.02
		c-0.967-1.254-1.45-2.769-1.45-4.545c0-0.587,0.039-1.136,0.118-1.646c0.404-2.233,1.182-4.062,2.331-5.485
		c1.397-1.868,3.128-2.801,5.191-2.801c2.024,0,3.879,0.895,5.563,2.684c1.711,1.946,2.848,4.48,3.409,7.602
		C1034.429,221.75,1034.521,222.743,1034.521,223.709z M1024.51,207.978l-4.35-4.349l4.35-4.349l4.349,4.349L1024.51,207.978z
		 M1027.605,218.439c-0.705-1.188-1.488-1.783-2.351-1.783c-0.326,0-0.634,0.092-0.921,0.274c-0.496,0.301-0.908,0.718-1.234,1.254
		s-0.489,1.143-0.489,1.822c0,0.301,0.065,0.559,0.195,0.774c0.131,0.215,0.274,0.382,0.432,0.5
		c0.156,0.118,0.401,0.219,0.734,0.304s0.594,0.137,0.783,0.157s0.493,0.049,0.911,0.088c0.692,0.066,1.358,0.098,1.999,0.098
		c0.392,0,0.764-0.02,1.116-0.059C1028.506,220.431,1028.115,219.288,1027.605,218.439z"/>
	<path fill="#FFFFFF" d="M1038.967,234.896c0.274-4.95,0.425-8.287,0.451-10.011v-0.842c0-2.534-0.164-6.099-0.49-10.696
		c-0.261-3.5-0.489-5.832-0.686-6.994c-0.092-0.522-0.189-1.143-0.294-1.861l6.054-1.998c0.888,5.224,1.332,11.396,1.332,18.513
		c0,0.288-0.003,0.758-0.01,1.411c-0.007,0.653-0.01,1.156-0.01,1.508c0,4.036-0.098,7.379-0.294,10.031L1038.967,234.896z"/>
	<path fill="#FFFFFF" d="M1064.652,230.409c0.117,1.998,0.313,4.959,0.587,8.884c0.274,3.925,0.471,6.873,0.588,8.845l-5.994,1.02
		l-0.765-19.297c0-1.685,0.457-3.059,1.372-4.124c0.913-1.064,2.181-1.597,3.8-1.597h0.313c0.079,0,0.183,0.013,0.313,0.039
		c0.875-2.403,2.09-4.382,3.645-5.936c0.73-0.731,1.481-1.286,2.253-1.665c0.771-0.379,1.69-0.568,2.762-0.568h0.157
		c2.521,0.092,4.512,1.104,5.975,3.037c1.28,1.776,1.92,3.781,1.92,6.014v0.47c0,1.672-0.287,3.207-0.861,4.604l0.02-0.02
		c-0.901,2.377-2.364,3.742-4.389,4.094l0.059-0.039c-0.301,0.091-0.568,0.137-0.803,0.137c-0.196,0-0.408-0.017-0.637-0.049
		c-0.229-0.033-0.425-0.065-0.588-0.098s-0.376-0.095-0.637-0.186c-0.262-0.091-0.447-0.157-0.559-0.196
		c-0.111-0.04-0.316-0.115-0.617-0.226s-0.483-0.179-0.548-0.206c-0.471-0.183-1.574-0.64-3.312-1.371
		S1065.617,230.723,1064.652,230.409z M1075.837,228.019c0.262-0.757,0.393-1.541,0.393-2.351c0-0.744-0.157-1.4-0.471-1.969
		s-0.731-0.989-1.254-1.264c-0.274-0.144-0.574-0.215-0.901-0.215c-0.822,0-1.6,0.366-2.331,1.097
		c-0.365,0.366-0.816,1.156-1.352,2.37C1072.507,226.85,1074.479,227.627,1075.837,228.019z"/>
	<path fill="#FFFFFF" d="M1101.325,231.761c0,0.901-0.294,1.639-0.882,2.214s-1.339,0.862-2.253,0.862
		c-1.136,0-2.103-0.163-2.899-0.49c-0.562,3.083-2.076,5.988-4.545,8.718c-2.233,2.468-5.146,4.597-8.737,6.386l-3.585-4.956
		c3.147-1.606,5.779-3.35,7.895-5.23c1.489-1.332,2.56-2.769,3.213-4.31c0.313-0.745,0.471-1.502,0.471-2.272v-0.176
		c0-0.026-0.004-0.065-0.01-0.118c-0.007-0.052-0.01-0.091-0.01-0.118c0-0.026-0.004-0.052-0.01-0.078
		c-0.007-0.026-0.01-0.046-0.01-0.059c-0.079-0.587-0.187-1.178-0.323-1.773c-0.138-0.594-0.265-1.104-0.383-1.528
		c-0.117-0.424-0.297-0.95-0.538-1.577c-0.242-0.627-0.422-1.081-0.539-1.361s-0.336-0.78-0.656-1.499
		c-0.32-0.718-0.525-1.188-0.617-1.41l5.662-2.469c0.353,1.058,0.637,1.884,0.852,2.479c0.216,0.594,0.5,1.263,0.853,2.008
		s0.718,1.391,1.097,1.939c0.771,1.136,1.686,1.705,2.743,1.705h0.098c0.889,0,1.629,0.297,2.224,0.891
		C1101.029,230.132,1101.325,230.873,1101.325,231.761z"/>
	<path fill="#FFFFFF" d="M1095.684,233.955c-0.588-0.588-0.882-1.326-0.882-2.214s0.294-1.626,0.882-2.214
		c0.588-0.587,1.325-0.881,2.214-0.881h2.899c2.873,0,4.545-0.542,5.015-1.626c0.104-0.287,0.157-0.64,0.157-1.058
		c0-0.287-0.092-0.757-0.274-1.411c-0.575-1.998-1.541-4.284-2.899-6.856l5.603-2.782c1.358,3.004,2.279,5.767,2.763,8.287
		c0.169,0.901,0.255,1.809,0.255,2.723c0,1.319-0.235,2.527-0.706,3.624c-0.796,1.803-2.011,3.135-3.644,3.997
		c-1.633,0.862-3.735,1.293-6.309,1.293h-2.859C1097.009,234.837,1096.272,234.543,1095.684,233.955z M1104.538,212.543
		l-4.349-4.349l4.349-4.35l4.35,4.35L1104.538,212.543z"/>
	<path fill="#FFFFFF" d="M738.22,300.896c-2.4,0-4.364-0.392-5.893-1.173c-1.529-0.781-2.76-1.995-3.692-3.641
		c-3.825,3.25-9.406,4.875-16.741,4.875c-6.993-0.069-12.245-1.296-15.755-3.682c-1.316-0.892-2.308-1.927-2.972-3.105
		c-0.666-1.18-0.998-2.708-0.998-4.587c0-2.592,0.747-5.348,2.242-8.268l4.895,2.838c-0.027,0.041-0.1,0.182-0.216,0.422
		s-0.188,0.391-0.216,0.452s-0.093,0.199-0.195,0.411c-0.103,0.213-0.172,0.364-0.206,0.453s-0.093,0.236-0.175,0.442
		c-0.082,0.205-0.137,0.37-0.164,0.493c-0.028,0.123-0.069,0.288-0.124,0.493c-0.055,0.206-0.089,0.392-0.103,0.556
		c-0.014,0.165-0.031,0.35-0.052,0.556c-0.021,0.205-0.03,0.411-0.03,0.617c0,0.575,0.109,1.268,0.329,2.077
		c0.63,1.097,2.311,1.933,5.039,2.509c2.386,0.508,5.285,0.761,8.7,0.761c1.687,0,3.194-0.058,4.524-0.175
		c1.33-0.116,2.653-0.329,3.97-0.638c1.316-0.308,2.468-0.761,3.455-1.357c0.987-0.596,1.775-1.34,2.365-2.231
		c0.493-0.727,0.888-1.532,1.183-2.416c0.295-0.885,0.6-2.02,0.915-3.404l5.759,1.46l-0.843,4.36
		c-0.041,0.247-0.062,0.48-0.062,0.699c0,0.851,0.253,1.561,0.761,2.129c0.507,0.569,1.138,0.974,1.892,1.214
		s1.611,0.359,2.571,0.359c0.933,0,1.71,0.309,2.334,0.926s0.937,1.392,0.937,2.324s-0.312,1.707-0.937,2.324
		s-1.401,0.926-2.334,0.926H738.22z M713.477,279.444l-3.866,3.867l-3.99-3.97l3.949-3.97l3.907,3.908l3.867-3.867l3.989,3.97
		l-3.948,3.97L713.477,279.444z"/>
	<path fill="#FFFFFF" d="M735.073,297.646c0-0.933,0.322-1.707,0.967-2.324s1.439-0.926,2.386-0.926H757.1
		c1.371,0,2.372,0.658,3.003,1.975c0.179,0.37,0.268,0.796,0.268,1.275c0,0.933-0.312,1.707-0.936,2.324s-1.402,0.926-2.335,0.926
		h-18.695c-0.713,0-1.337-0.189-1.872-0.566c-0.534-0.377-0.932-0.846-1.192-1.408C735.162,298.552,735.073,298.127,735.073,297.646
		z"/>
	<path fill="#FFFFFF" d="M765.553,300.731c-0.795,0.124-1.467,0.186-2.016,0.186l-6.644-0.021c-1,0-1.826-0.299-2.478-0.895
		c-0.651-0.597-0.978-1.375-0.978-2.335c0-0.987,0.322-1.779,0.967-2.375c0.645-0.597,1.475-0.896,2.488-0.896h2.16
		c3.359,0,5.779-0.253,7.26-0.761c1.385-0.479,2.078-1.521,2.078-3.126c0-0.658-0.113-1.285-0.34-1.882s-0.445-1.046-0.658-1.348
		c-0.213-0.301-0.559-0.74-1.039-1.316c-1.878-2.262-4.586-4.874-8.124-7.836l0.638-5.594l17.277-7.692l2.488,5.512l-13.657,6.335
		c2.222,1.55,4.237,3.613,6.047,6.19c1.234,1.77,2.091,3.538,2.571,5.307c0.247,0.919,0.37,1.748,0.37,2.488v0.165
		c-0.041,1.92-0.501,3.668-1.378,5.244c-1.426,2.551-3.777,4.106-7.055,4.669L765.553,300.731z"/>
	<path fill="#FFFFFF" d="M786.675,285.82c1.385,3.963,2.256,7.37,2.612,10.222c0.082,0.631,0.124,1.221,0.124,1.77
		c0,2.481-0.673,4.929-2.016,7.342c-2.51,4.553-6.644,8.248-12.402,11.086l-3.743-5.203c4.661-2.331,8.192-5.101,10.592-8.31
		c1.275-1.714,1.913-3.346,1.913-4.895c0-0.96-0.295-2.311-0.885-4.052c-0.425-1.221-1.138-2.969-2.139-5.245L786.675,285.82z"/>
	<path fill="#FFFFFF" d="M799.345,282.344c0,0.795-0.062,1.947-0.185,3.455c-0.124,1.509-0.186,2.646-0.186,3.414
		c0,1.48,0.206,2.79,0.617,3.929c0.206,0.521,0.521,0.856,0.946,1.008c0.425,0.15,1.076,0.226,1.954,0.226h0.185
		c1.357,0,2.358,0.672,3.003,2.016c0.178,0.37,0.268,0.789,0.268,1.255c0,0.933-0.312,1.707-0.936,2.324
		c-0.624,0.617-1.402,0.926-2.335,0.926c-1.728,0-3.178-0.206-4.35-0.617c-1.173-0.411-2.211-1.056-3.116-1.934
		c-0.768-0.768-1.319-1.662-1.655-2.684c-0.337-1.021-0.504-2.294-0.504-3.815v-0.309c0.055-1.467,0.082-3.318,0.082-5.554
		c0-5.703-0.138-10.152-0.411-13.348c-0.138-1.563-0.295-2.804-0.474-3.723l6.149-1.872c0.11,0.521,0.206,1.091,0.288,1.707
		c0.083,0.617,0.154,1.176,0.216,1.677c0.062,0.501,0.113,1.142,0.154,1.923c0.042,0.781,0.075,1.389,0.104,1.82
		c0.027,0.432,0.055,1.107,0.082,2.025c0.027,0.919,0.041,1.543,0.041,1.872s0.011,1.001,0.031,2.016s0.03,1.632,0.03,1.851V282.344
		z"/>
	<path fill="#FFFFFF" d="M799.283,297.646c0-0.933,0.322-1.707,0.967-2.324s1.439-0.926,2.386-0.926h18.675
		c1.371,0,2.372,0.658,3.003,1.975c0.179,0.37,0.268,0.796,0.268,1.275c0,0.933-0.312,1.707-0.936,2.324s-1.402,0.926-2.335,0.926
		h-18.695c-0.713,0-1.337-0.189-1.872-0.566c-0.534-0.377-0.932-0.846-1.192-1.408C799.373,298.552,799.283,298.127,799.283,297.646
		z"/>
	<path fill="#FFFFFF" d="M828.838,297.564c-1.151,1.069-2.293,1.892-3.424,2.468c-1.132,0.576-2.506,0.864-4.124,0.864
		c-0.946,0-1.721-0.306-2.324-0.916c-0.604-0.609-0.905-1.388-0.905-2.334c0-0.933,0.306-1.697,0.916-2.293
		c0.61-0.597,1.374-0.915,2.293-0.957c1.632,0,3.03-0.644,4.195-1.933c0.59-0.658,1.189-1.532,1.8-2.623
		c0.61-1.09,1.128-2.077,1.553-2.961c0.425-0.885,1.005-1.776,1.738-2.674c0.733-0.898,1.546-1.573,2.438-2.026
		c0.918-0.466,1.898-0.699,2.94-0.699c2.358,0,4.395,0.98,6.109,2.941c1.59,1.934,2.386,4.388,2.386,7.363
		c0,3.099-0.898,5.457-2.694,7.075c-0.699,0.631-1.399,1.093-2.099,1.388s-1.576,0.442-2.632,0.442
		c-0.919,0-1.852-0.144-2.798-0.432s-1.696-0.576-2.252-0.864s-1.251-0.686-2.088-1.192
		C829.291,297.845,828.948,297.633,828.838,297.564z M838.773,294.438c0.274,0,0.486-0.196,0.638-0.587
		c0.15-0.391,0.226-0.812,0.226-1.265c0-0.041-0.003-0.103-0.01-0.186c-0.007-0.082-0.011-0.144-0.011-0.185
		c0-0.933-0.445-1.905-1.337-2.921c-0.933-1.083-1.912-1.625-2.94-1.625c-0.192,0-0.439,0.274-0.741,0.823
		c-0.315,0.576-0.754,1.392-1.315,2.447l-0.638,1.296c1.412,0.892,3.03,1.557,4.854,1.995c0.548,0.137,0.912,0.206,1.09,0.206
		H838.773z"/>
	<path fill="#FFFFFF" d="M864.935,297.667c0,0.946-0.309,1.721-0.926,2.324s-1.405,0.905-2.365,0.905
		c-1.192,0-2.208-0.172-3.044-0.515c-0.59,3.236-2.18,6.287-4.771,9.152c-2.345,2.592-5.402,4.826-9.173,6.705l-3.764-5.203
		c3.305-1.687,6.067-3.518,8.288-5.492c1.563-1.398,2.688-2.906,3.373-4.524c0.329-0.781,0.494-1.576,0.494-2.386v-0.186
		c0-0.027-0.004-0.068-0.011-0.123s-0.01-0.096-0.01-0.123s-0.004-0.055-0.011-0.083c-0.007-0.027-0.01-0.048-0.01-0.062
		c-0.083-0.617-0.195-1.237-0.34-1.861c-0.144-0.624-0.277-1.158-0.401-1.604c-0.123-0.445-0.312-0.997-0.565-1.655
		s-0.442-1.135-0.565-1.43c-0.123-0.294-0.354-0.818-0.688-1.573c-0.337-0.754-0.553-1.247-0.648-1.48l5.944-2.592
		c0.37,1.11,0.668,1.979,0.895,2.602c0.227,0.624,0.524,1.327,0.895,2.108s0.754,1.46,1.151,2.036c0.81,1.193,1.77,1.789,2.88,1.789
		h0.103c0.933,0,1.711,0.312,2.335,0.937C864.622,295.957,864.935,296.734,864.935,297.667z"/>
	<path fill="#FFFFFF" d="M858.126,297.646c0-0.933,0.322-1.707,0.967-2.324s1.439-0.926,2.386-0.926h18.675
		c1.371,0,2.372,0.658,3.003,1.975c0.179,0.37,0.268,0.796,0.268,1.275c0,0.933-0.312,1.707-0.936,2.324s-1.402,0.926-2.335,0.926
		h-18.695c-0.713,0-1.337-0.189-1.872-0.566c-0.534-0.377-0.932-0.846-1.192-1.408C858.216,298.552,858.126,298.127,858.126,297.646
		z"/>
	<path fill="#FFFFFF" d="M877.8,299.98c-0.61-0.609-0.916-1.388-0.916-2.334s0.306-1.724,0.916-2.334
		c0.609-0.61,1.388-0.916,2.334-0.916h3.271c2.468,0,4.477-0.287,6.026-0.863c0.493-0.178,0.859-0.388,1.1-0.628
		c0.24-0.239,0.36-0.613,0.36-1.12c0-0.59-0.145-1.289-0.432-2.099c-0.247-0.699-0.542-1.419-0.885-2.159s-0.771-1.625-1.285-2.653
		c-0.515-1.028-0.841-1.687-0.978-1.975l5.862-2.879c1.426,2.454,2.447,5.409,3.064,8.864c0.191,1.069,0.288,1.954,0.288,2.653
		c0,1.385-0.247,2.653-0.741,3.805c-1.151,2.564-3.14,4.251-5.964,5.06c-1.303,0.329-3.037,0.494-5.204,0.494h-4.483
		C879.188,300.896,878.409,300.591,877.8,299.98z M884.638,311.385l-3.948-3.97l3.989-3.97l3.867,3.867l3.908-3.908l3.948,3.97
		l-3.99,3.97l-3.866-3.867L884.638,311.385z M888.546,317l-3.661-3.66l3.682-3.682l3.661,3.66L888.546,317z"/>
	<path fill="#FFFFFF" d="M898.377,309.061c3.702-0.74,6.828-1.879,9.379-3.414c2.386-1.454,3.914-3.037,4.586-4.751
		c-1.48,0-2.811-0.076-3.99-0.227c-1.179-0.151-2.311-0.422-3.394-0.812s-1.981-0.905-2.694-1.542
		c-0.713-0.638-1.282-1.464-1.707-2.479s-0.638-2.201-0.638-3.559c0-2.125,0.556-4.258,1.666-6.396
		c0.37-0.713,0.727-1.296,1.069-1.748c1.673-2.084,3.606-3.126,5.801-3.126c2.316,0,4.408,1.015,6.272,3.044
		c2.413,2.674,3.791,6.122,4.134,10.345h0.392c1.385,0,2.393,0.658,3.023,1.975c0.178,0.37,0.267,0.803,0.267,1.296
		c0,0.933-0.312,1.704-0.936,2.313c-0.624,0.61-1.409,0.916-2.354,0.916h-0.905c-0.81,3.03-2.283,5.611-4.422,7.743
		c-2.14,2.132-4.73,3.809-7.774,5.029c-1.947,0.781-4.031,1.35-6.253,1.707L898.377,309.061z M908.455,287.527
		c-0.646,0-1.316,0.473-2.016,1.419c-0.741,0.974-1.111,1.927-1.111,2.859c0,0.466,0.12,0.86,0.36,1.183
		c0.239,0.322,0.586,0.569,1.038,0.74c0.453,0.172,0.881,0.295,1.286,0.37c0.404,0.075,0.881,0.141,1.43,0.195
		c0.493,0.041,0.768,0.062,0.822,0.062h1.851c0.206,0,0.487,0.014,0.844,0.041c-0.343-2.207-1.282-4.195-2.817-5.964
		C909.538,287.829,908.976,287.527,908.455,287.527z"/>
	<path fill="#FFFFFF" d="M915.901,297.646c0-0.933,0.322-1.707,0.967-2.324s1.439-0.926,2.386-0.926h18.675
		c1.371,0,2.372,0.658,3.003,1.975c0.179,0.37,0.268,0.796,0.268,1.275c0,0.933-0.312,1.707-0.936,2.324s-1.402,0.926-2.335,0.926
		h-18.695c-0.713,0-1.337-0.189-1.872-0.566c-0.534-0.377-0.932-0.846-1.192-1.408C915.99,298.552,915.901,298.127,915.901,297.646z
		"/>
	<path fill="#FFFFFF" d="M937.866,300.917c-0.878-0.041-1.611-0.37-2.201-0.987c-0.589-0.617-0.884-1.371-0.884-2.263
		c0-1.316,0.631-2.296,1.892-2.941c0.398-0.205,0.796-0.314,1.193-0.329c1.056,0,1.923-0.271,2.602-0.812
		c0.679-0.541,1.285-1.278,1.82-2.211c0.727-1.288,1.494-3.503,2.304-6.643l5.471,0.987c-0.055,0.261-0.216,0.915-0.483,1.964
		s-0.459,1.94-0.576,2.674c-0.116,0.733-0.175,1.478-0.175,2.231c0,1.344,0.377,2.016,1.132,2.016c1.097,0,2.07-0.638,2.92-1.913
		c1.152-1.769,1.975-4.408,2.469-7.918l5.224,0.884c-0.027,0.453-0.113,1.293-0.257,2.52c-0.145,1.228-0.216,2.19-0.216,2.891
		c0,2.386,0.815,3.578,2.447,3.578c0.658,0,1.248-0.15,1.769-0.452c0.521-0.302,0.933-0.686,1.234-1.152
		c0.206-0.329,0.309-0.699,0.309-1.11c0-1.179-0.404-2.811-1.214-4.895c-0.411-1.056-1.056-2.496-1.933-4.319l5.101-2.859
		c1.741,3.799,2.838,7.048,3.29,9.749c0.151,0.933,0.227,1.797,0.227,2.592c0,2.907-0.789,5.114-2.365,6.623
		c-1.577,1.508-3.839,2.282-6.787,2.323c-2.564,0-4.539-0.933-5.924-2.797c-0.686,0.905-1.505,1.587-2.457,2.047
		c-0.953,0.459-2.149,0.709-3.59,0.75h-0.246c-2.194,0-3.963-0.933-5.307-2.797c-1.398,1.714-3.537,2.571-6.417,2.571H937.866z"/>
	<path fill="#FFFFFF" d="M998.992,297.749c-1.234,0.179-2.544,0.268-3.929,0.268c-3.866,0-6.65-1.008-8.351-3.023
		c-0.904-1.192-1.357-2.55-1.357-4.072c0-1.097,0.165-2.016,0.494-2.756c1.673-3.469,4.812-6.108,9.42-7.919
		c-0.014-0.178-0.038-0.486-0.072-0.925s-0.059-0.768-0.072-0.987l-0.103-1.296l6.417-1.378c0.082,0.521,0.171,1.326,0.268,2.417
		c0.096,1.09,0.157,1.771,0.185,2.046c0.11,0.878,0.233,2.077,0.37,3.6c0.329,3.606,0.748,6.589,1.255,8.946
		c0.137,0.658,0.422,1.111,0.854,1.357c0.433,0.247,1.073,0.37,1.923,0.37c1.371,0,2.372,0.658,3.003,1.975
		c0.179,0.37,0.268,0.796,0.268,1.275c0,0.933-0.312,1.707-0.936,2.324s-1.402,0.926-2.335,0.926
		C1002.962,300.896,1000.528,299.847,998.992,297.749z M994.941,291.558c0.273,0,0.87-0.034,1.789-0.103
		c-0.261-1.893-0.404-3.03-0.432-3.414l-0.206-1.893c-2.454,1.289-4.12,2.393-4.998,3.312c-0.384,0.397-0.575,0.788-0.575,1.172
		C990.519,291.25,991.992,291.558,994.941,291.558z"/>
	<path fill="#FFFFFF" d="M1017.832,286.129c-0.384,0.014-0.758,0.075-1.121,0.185c-0.363,0.11-0.675,0.224-0.936,0.34
		s-0.552,0.315-0.874,0.597s-0.562,0.49-0.72,0.627c-0.158,0.138-0.388,0.395-0.689,0.771s-0.486,0.613-0.555,0.709
		c-0.069,0.097-0.254,0.35-0.556,0.762l-4.874-2.798c1.892-3.441,4.339-5.82,7.342-7.137c0.946-0.411,1.893-0.617,2.839-0.617h0.144
		c0.823,0.028,1.663,0.142,2.52,0.34c0.856,0.199,1.553,0.401,2.088,0.606c0.534,0.206,1.22,0.487,2.057,0.844
		c0.384,0.164,0.997,0.436,1.841,0.812c0.843,0.377,1.512,0.672,2.005,0.884c0.494,0.213,1.118,0.46,1.872,0.74
		c0.754,0.281,1.474,0.519,2.159,0.71c2.345,0.645,4.449,0.967,6.314,0.967l-1.069,6.067c-0.48,0.233-1.18,0.562-2.098,0.987
		l-0.535,0.268c0.892,1.069,2.66,1.604,5.307,1.604h0.288c0.932,0,1.71,0.312,2.334,0.937s0.936,1.401,0.936,2.334
		c0,0.946-0.309,1.721-0.925,2.324c-0.617,0.604-1.399,0.905-2.345,0.905h-0.288c-3.949,0-7.089-1.001-9.42-3.003
		c-0.755-0.645-1.364-1.364-1.831-2.16c-2.427,1.18-4.724,2.167-6.89,2.962c-2.167,0.796-4.436,1.392-6.808,1.789
		c-1.687,0.288-3.449,0.433-5.286,0.433l-3.764-0.021c-0.946,0-1.728-0.306-2.345-0.916c-0.617-0.609-0.926-1.381-0.926-2.313
		c0-0.699,0.188-1.306,0.565-1.82c0.378-0.514,0.854-0.908,1.43-1.183c0.37-0.178,0.796-0.268,1.275-0.268h3.764
		c2.907,0,6.28-0.534,10.119-1.604c3.647-1.028,6.808-2.174,9.481-3.436c-0.987-0.232-2.502-0.706-4.545-1.419
		c-2.044-0.713-3.572-1.192-4.587-1.439c-1.028-0.247-1.879-0.37-2.55-0.37H1017.832z M1017.73,277.799l-4.566-4.565l4.566-4.566
		l4.565,4.566L1017.73,277.799z"/>
	<path fill="#FFFFFF" d="M1037.268,297.646c0-0.933,0.322-1.707,0.967-2.324s1.439-0.926,2.386-0.926h18.675
		c1.371,0,2.372,0.658,3.003,1.975c0.179,0.37,0.268,0.796,0.268,1.275c0,0.933-0.312,1.707-0.936,2.324s-1.402,0.926-2.335,0.926
		H1040.6c-0.713,0-1.337-0.189-1.872-0.566c-0.534-0.377-0.932-0.846-1.192-1.408
		C1037.358,298.552,1037.268,298.127,1037.268,297.646z"/>
	<path fill="#FFFFFF" d="M1066.083,298.037c-0.727,1.001-1.621,1.728-2.684,2.181c-1.063,0.452-2.431,0.679-4.104,0.679
		c-1.028,0-1.864-0.295-2.509-0.885c-0.645-0.589-0.967-1.378-0.967-2.365c0-1.316,0.699-2.297,2.098-2.941
		c0.411-0.178,0.857-0.28,1.337-0.309c0.768,0,1.446-0.116,2.036-0.35c0.59-0.232,1.093-0.582,1.512-1.049
		c0.418-0.466,0.761-0.942,1.028-1.429c0.268-0.487,0.545-1.094,0.833-1.82c0.493-1.262,0.967-2.894,1.419-4.896l5.471,0.781
		c-0.562,2.4-0.843,4.416-0.843,6.047c0,1.632,0.356,2.544,1.069,2.735c0.438,0.11,0.85,0.021,1.234-0.267
		c0.658-0.48,1.206-1.155,1.646-2.026c0.438-0.87,0.87-1.937,1.295-3.198c0.439-1.357,0.789-2.715,1.05-4.072l5.43,0.781
		c-0.015,0.302-0.079,1.063-0.195,2.283c-0.117,1.221-0.175,2.174-0.175,2.859c0,0.987,0.157,1.827,0.473,2.52
		s0.843,1.038,1.584,1.038c0.397,0,0.747-0.099,1.049-0.298c0.301-0.199,0.548-0.483,0.74-0.854c0.191-0.37,0.343-0.713,0.452-1.028
		s0.213-0.692,0.309-1.132c0.274-1.179,0.411-2.44,0.411-3.784c0-0.603-0.021-1.138-0.062-1.604l5.554-0.781l0.679,5.8
		c0.109,0.851,0.4,1.573,0.874,2.17c0.473,0.597,1.072,1.039,1.8,1.327c0.411,0.164,0.802,0.246,1.172,0.246h0.247
		c1.001,0,1.82,0.299,2.458,0.896c0.638,0.596,0.956,1.381,0.956,2.354c0,1.015-0.34,1.81-1.019,2.386s-1.56,0.864-2.643,0.864
		c-2.962,0-5.238-1.021-6.828-3.064c-0.055,0.055-0.134,0.141-0.236,0.257c-0.104,0.116-0.183,0.209-0.237,0.277v-0.021
		c-1.617,1.7-3.51,2.551-5.676,2.551c-1.303,0-2.469-0.274-3.497-0.823c-1.028-0.548-1.885-1.268-2.57-2.159
		c-1.852,2.029-3.929,3.044-6.232,3.044c-1.233,0-2.345-0.271-3.332-0.812C1067.502,299.603,1066.7,298.901,1066.083,298.037z"/>
	<path fill="#FFFFFF" d="M1094.878,299.97c-0.617-0.617-0.926-1.392-0.926-2.324s0.309-1.707,0.926-2.324s1.392-0.926,2.324-0.926
		h3.044c3.016,0,4.771-0.568,5.265-1.707c0.109-0.301,0.165-0.671,0.165-1.11c0-0.302-0.097-0.795-0.288-1.48
		c-0.604-2.099-1.618-4.497-3.044-7.199l5.882-2.92c1.426,3.153,2.393,6.054,2.9,8.699c0.178,0.946,0.268,1.899,0.268,2.859
		c0,1.385-0.247,2.653-0.741,3.805c-0.836,1.893-2.111,3.291-3.825,4.196c-1.714,0.904-3.922,1.357-6.623,1.357h-3.002
		C1096.27,300.896,1095.495,300.588,1094.878,299.97z M1104.174,277.49l-4.565-4.565l4.565-4.566l4.566,4.566L1104.174,277.49z"/>
</g>
<g>
	<path fill="#FFFFFF" d="M875.109,390.358c-4.561,0-7.507-1.672-8.839-5.015c-0.447-1.102-0.671-2.313-0.671-3.638
		c0-1.357,0.22-2.727,0.658-4.109c0.447-1.398,1.088-2.734,1.924-4.009l2.794,2.011c-0.778,1.084-1.362,2.532-1.751,4.345
		c-0.141,0.662-0.211,1.282-0.211,1.862c0,1.332,0.571,2.429,1.713,3.289c1.109,0.836,2.404,1.267,3.886,1.291h0.149
		c1.349,0,2.549-0.267,3.6-0.801c1.051-0.533,1.833-1.247,2.347-2.141c0.313-0.555,0.472-1.15,0.472-1.788v-0.198
		c-0.018-0.547-0.224-1.407-0.621-2.582c-0.24-0.695-0.745-1.903-1.515-3.625c-0.1-0.224-0.178-0.41-0.235-0.559l3.376-1.875
		c0.009,0.009,0.021,0.029,0.037,0.062s0.042,0.089,0.075,0.168c0.032,0.078,0.065,0.15,0.099,0.217
		c0.505,1.051,1.01,2.434,1.515,4.146c0.381,1.266,0.608,2.438,0.683,3.513c0.009,0.042,0.013,0.12,0.013,0.236v0.248
		c0,2.408-0.77,4.452-2.309,6.132C880.566,389.419,878.17,390.358,875.109,390.358z M875.109,375.35l-2.756-2.756l2.756-2.756
		l2.756,2.756L875.109,375.35z"/>
	<path fill="#FFFFFF" d="M890.811,370.608c0,0.479-0.037,1.175-0.111,2.085c-0.074,0.911-0.112,1.598-0.112,2.061
		c0,0.895,0.125,1.685,0.373,2.371c0.124,0.315,0.314,0.518,0.57,0.608c0.257,0.092,0.65,0.137,1.18,0.137h0.111
		c0.819,0,1.424,0.405,1.812,1.217c0.107,0.224,0.162,0.476,0.162,0.757c0,0.563-0.188,1.03-0.565,1.403
		c-0.376,0.372-0.846,0.559-1.409,0.559c-1.042,0-1.917-0.124-2.625-0.373c-0.708-0.248-1.335-0.637-1.881-1.167
		c-0.464-0.463-0.797-1.003-0.999-1.619c-0.203-0.617-0.305-1.385-0.305-2.303v-0.187c0.033-0.886,0.05-2.003,0.05-3.352
		c0-3.443-0.083-6.128-0.248-8.057c-0.083-0.943-0.178-1.692-0.285-2.247l3.711-1.13c0.066,0.314,0.125,0.658,0.174,1.03
		c0.05,0.373,0.094,0.71,0.131,1.012c0.037,0.303,0.068,0.689,0.093,1.161c0.025,0.472,0.046,0.838,0.062,1.099
		s0.033,0.668,0.05,1.223s0.024,0.931,0.024,1.13c0,0.198,0.006,0.604,0.019,1.217c0.013,0.612,0.019,0.984,0.019,1.117V370.608z"/>
	<path fill="#FFFFFF" d="M897.353,379.794c-0.695,0.646-1.384,1.143-2.066,1.49s-1.513,0.521-2.489,0.521
		c-0.571,0-1.038-0.185-1.402-0.553s-0.547-0.838-0.547-1.409c0-0.562,0.185-1.023,0.553-1.384s0.83-0.553,1.384-0.577
		c0.985,0,1.829-0.389,2.532-1.167c0.356-0.397,0.719-0.925,1.087-1.583s0.681-1.254,0.937-1.787
		c0.257-0.534,0.606-1.072,1.05-1.614c0.442-0.542,0.933-0.949,1.471-1.223c0.555-0.281,1.146-0.422,1.775-0.422
		c1.423,0,2.652,0.592,3.687,1.775c0.96,1.167,1.44,2.648,1.44,4.443c0,1.871-0.543,3.294-1.627,4.271
		c-0.422,0.381-0.844,0.66-1.266,0.838s-0.952,0.268-1.589,0.268c-0.555,0-1.117-0.087-1.688-0.261s-1.024-0.348-1.359-0.521
		s-0.755-0.414-1.26-0.721C897.626,379.964,897.419,379.836,897.353,379.794z M903.349,377.907c0.165,0,0.294-0.118,0.385-0.354
		c0.091-0.236,0.137-0.49,0.137-0.764c0-0.024-0.002-0.062-0.007-0.111c-0.004-0.05-0.006-0.087-0.006-0.112
		c0-0.562-0.269-1.149-0.807-1.763c-0.563-0.653-1.154-0.98-1.775-0.98c-0.116,0-0.265,0.166-0.447,0.497
		c-0.19,0.348-0.455,0.84-0.794,1.477l-0.385,0.782c0.853,0.538,1.829,0.939,2.93,1.204c0.331,0.083,0.55,0.124,0.657,0.124H903.349
		z"/>
	<path fill="#FFFFFF" d="M907.272,386.733c2.234-0.446,4.121-1.134,5.66-2.061c1.44-0.877,2.363-1.833,2.769-2.867
		c-0.894,0-1.696-0.046-2.408-0.137s-1.395-0.255-2.048-0.49c-0.654-0.236-1.196-0.547-1.627-0.932
		c-0.43-0.385-0.773-0.883-1.03-1.495c-0.256-0.612-0.385-1.329-0.385-2.147c0-1.283,0.336-2.57,1.006-3.861
		c0.224-0.43,0.438-0.782,0.646-1.055c1.01-1.258,2.177-1.887,3.501-1.887c1.398,0,2.66,0.612,3.786,1.837
		c1.456,1.613,2.288,3.695,2.495,6.244h0.235c0.836,0,1.444,0.397,1.825,1.191c0.107,0.224,0.161,0.484,0.161,0.782
		c0,0.562-0.188,1.028-0.564,1.396c-0.377,0.368-0.851,0.553-1.422,0.553h-0.546c-0.488,1.828-1.378,3.387-2.669,4.674
		c-1.291,1.286-2.855,2.298-4.692,3.035c-1.176,0.472-2.434,0.814-3.773,1.03L907.272,386.733z M913.355,373.736
		c-0.39,0-0.795,0.285-1.217,0.856c-0.447,0.588-0.671,1.163-0.671,1.726c0,0.281,0.073,0.52,0.218,0.714s0.354,0.344,0.627,0.447
		s0.531,0.178,0.775,0.223c0.244,0.046,0.532,0.085,0.863,0.118c0.298,0.025,0.463,0.037,0.496,0.037h1.117
		c0.124,0,0.294,0.009,0.509,0.025c-0.206-1.332-0.773-2.532-1.7-3.601C914.008,373.919,913.669,373.736,913.355,373.736z"/>
	<path fill="#FFFFFF" d="M918.04,381.253c-0.368-0.368-0.553-0.838-0.553-1.409c0-0.57,0.185-1.04,0.553-1.409
		c0.368-0.367,0.838-0.552,1.409-0.552h1.974c1.489,0,2.702-0.174,3.637-0.521c0.299-0.107,0.52-0.233,0.665-0.379
		c0.145-0.145,0.217-0.37,0.217-0.677c0-0.355-0.087-0.777-0.261-1.266c-0.148-0.422-0.327-0.856-0.534-1.304
		c-0.206-0.446-0.465-0.98-0.775-1.602c-0.311-0.62-0.507-1.018-0.59-1.191l3.538-1.738c0.86,1.481,1.478,3.266,1.85,5.351
		c0.116,0.646,0.174,1.18,0.174,1.602c0,0.836-0.149,1.602-0.447,2.297c-0.694,1.547-1.895,2.565-3.6,3.054
		c-0.786,0.198-1.833,0.298-3.141,0.298h-2.706C918.878,381.805,918.408,381.621,918.04,381.253z M925.172,365.642l-2.334,2.334
		l-2.408-2.396l2.384-2.396l2.358,2.358l2.334-2.333l2.408,2.396l-2.384,2.396L925.172,365.642z"/>
	<path fill="#FFFFFF" d="M940.665,381.78c0-3.559-0.089-6.57-0.268-9.037c-0.178-2.466-0.564-4.68-1.16-6.642
		c-0.265-0.877-0.588-1.663-0.969-2.358l3.166-1.974c1.117,1.713,1.883,3.989,2.297,6.828c0.496,3.31,0.744,7.171,0.744,11.581
		v1.602H940.665z"/>
	<path fill="#FFFFFF" d="M953.972,362.552l-4.556,18.819h-2.569l4.506-18.819H953.972z"/>
	<path fill="#FFFFFF" d="M959.559,364.636c-0.307-0.306-0.484-0.487-0.534-0.546l2.656-2.669c0.05,0.059,0.141,0.153,0.273,0.286
		l0.335,0.335c0.265,0.265,0.492,0.476,0.683,0.633v-0.013l0.261,0.261c1.589,1.474,2.826,2.761,3.712,3.861
		c1.589,2.019,2.76,4.175,3.514,6.467c0.256,0.836,0.385,1.722,0.385,2.657c0,1.315-0.242,2.462-0.727,3.438
		s-1.161,1.721-2.029,2.234c-0.63,0.364-1.387,0.566-2.272,0.608h-0.024c-1.167,0-2.168-0.443-3.004-1.328
		c-0.845,0.877-1.866,1.315-3.066,1.315c-1.184,0-2.227-0.505-3.128-1.515c-1.043-1.175-1.564-2.664-1.564-4.469
		c0-1.267,0.157-2.421,0.472-3.464c0.314-1.042,0.762-2.155,1.341-3.339C957.452,368.15,958.359,366.565,959.559,364.636z
		 M967.479,375.983c0-0.562-0.075-1.097-0.224-1.602h0.013c-0.19-0.579-0.447-1.16-0.77-1.744c-0.323-0.583-0.621-1.075-0.895-1.478
		c-0.272-0.4-0.668-0.892-1.186-1.471c-0.517-0.579-0.896-0.991-1.136-1.235s-0.658-0.664-1.254-1.26
		c-1.158,1.531-2.159,3.302-3.004,5.313c-0.513,1.241-0.77,2.54-0.77,3.897c0,0.397,0.085,0.76,0.255,1.086
		c0.169,0.327,0.387,0.565,0.651,0.714c0.19,0.108,0.376,0.162,0.559,0.162c0.355,0,0.712-0.294,1.067-0.882
		c0.265-0.438,0.484-1.212,0.658-2.321l0.111-0.931l2.979,0.024c0,1.631,0.203,2.839,0.608,3.625
		c0.165,0.314,0.368,0.488,0.608,0.521c0.479-0.1,0.888-0.385,1.223-0.856S967.479,376.554,967.479,375.983z"/>
	<path fill="#FFFFFF" d="M974.766,381.78c0-3.559-0.089-6.57-0.268-9.037c-0.178-2.466-0.564-4.68-1.16-6.642
		c-0.265-0.877-0.588-1.663-0.969-2.358l3.166-1.974c1.117,1.713,1.883,3.989,2.297,6.828c0.496,3.31,0.744,7.171,0.744,11.581
		v1.602H974.766z"/>
	<path fill="#FFFFFF" d="M982.139,375.052c0-1.026,0.265-1.906,0.795-2.639c0.529-0.732,1.208-1.284,2.035-1.657
		c0.555-0.248,1.159-0.372,1.812-0.372c1.019,0,1.899,0.269,2.645,0.807s1.295,1.221,1.651,2.049
		c0.248,0.57,0.372,1.175,0.372,1.812c0,1.025-0.27,1.903-0.807,2.631c-0.538,0.729-1.226,1.275-2.061,1.639
		c-0.571,0.249-1.172,0.373-1.801,0.373c-1.018,0-1.893-0.265-2.625-0.795c-0.732-0.529-1.285-1.208-1.657-2.036
		C982.259,376.327,982.139,375.722,982.139,375.052z M985.453,376.374c0.348,0.353,0.79,0.528,1.328,0.528s0.985-0.176,1.341-0.528
		c0.355-0.352,0.534-0.792,0.534-1.321c0-0.406-0.107-0.758-0.323-1.056c-0.215-0.298-0.488-0.521-0.819-0.67
		c-0.223-0.1-0.468-0.149-0.732-0.149c-0.405,0-0.753,0.107-1.042,0.323c-0.29,0.215-0.51,0.492-0.658,0.831
		c-0.1,0.224-0.149,0.464-0.149,0.721C984.932,375.582,985.106,376.022,985.453,376.374z"/>
	<path fill="#FFFFFF" d="M1000.238,362.552l-4.556,18.819h-2.569l4.506-18.819H1000.238z"/>
	<path fill="#FFFFFF" d="M1001.628,375.052c0-1.026,0.265-1.906,0.795-2.639c0.529-0.732,1.208-1.284,2.035-1.657
		c0.555-0.248,1.159-0.372,1.812-0.372c1.019,0,1.899,0.269,2.645,0.807s1.295,1.221,1.651,2.049
		c0.248,0.57,0.372,1.175,0.372,1.812c0,1.025-0.27,1.903-0.807,2.631c-0.538,0.729-1.226,1.275-2.061,1.639
		c-0.571,0.249-1.172,0.373-1.801,0.373c-1.018,0-1.893-0.265-2.625-0.795c-0.732-0.529-1.285-1.208-1.657-2.036
		C1001.748,376.327,1001.628,375.722,1001.628,375.052z M1004.943,376.374c0.348,0.353,0.79,0.528,1.328,0.528
		s0.985-0.176,1.341-0.528c0.355-0.352,0.534-0.792,0.534-1.321c0-0.406-0.107-0.758-0.323-1.056
		c-0.215-0.298-0.488-0.521-0.819-0.67c-0.223-0.1-0.468-0.149-0.732-0.149c-0.405,0-0.753,0.107-1.042,0.323
		c-0.29,0.215-0.51,0.492-0.658,0.831c-0.1,0.224-0.149,0.464-0.149,0.721C1004.421,375.582,1004.595,376.022,1004.943,376.374z"/>
	<path fill="#FFFFFF" d="M1013.794,375.052c0-1.026,0.265-1.906,0.795-2.639c0.529-0.732,1.208-1.284,2.035-1.657
		c0.555-0.248,1.159-0.372,1.812-0.372c1.019,0,1.899,0.269,2.645,0.807s1.295,1.221,1.651,2.049
		c0.248,0.57,0.372,1.175,0.372,1.812c0,1.025-0.27,1.903-0.807,2.631c-0.538,0.729-1.226,1.275-2.061,1.639
		c-0.571,0.249-1.172,0.373-1.801,0.373c-1.018,0-1.893-0.265-2.625-0.795c-0.732-0.529-1.285-1.208-1.657-2.036
		C1013.914,376.327,1013.794,375.722,1013.794,375.052z M1017.109,376.374c0.348,0.353,0.79,0.528,1.328,0.528
		s0.985-0.176,1.341-0.528c0.355-0.352,0.534-0.792,0.534-1.321c0-0.406-0.107-0.758-0.323-1.056
		c-0.215-0.298-0.488-0.521-0.819-0.67c-0.223-0.1-0.468-0.149-0.732-0.149c-0.405,0-0.753,0.107-1.042,0.323
		c-0.29,0.215-0.51,0.492-0.658,0.831c-0.1,0.224-0.149,0.464-0.149,0.721C1016.587,375.582,1016.761,376.022,1017.109,376.374z"/>
	<path fill="#FFFFFF" d="M1025.959,375.052c0-1.026,0.265-1.906,0.795-2.639c0.529-0.732,1.208-1.284,2.035-1.657
		c0.555-0.248,1.159-0.372,1.812-0.372c1.019,0,1.899,0.269,2.645,0.807s1.295,1.221,1.651,2.049
		c0.248,0.57,0.372,1.175,0.372,1.812c0,1.025-0.27,1.903-0.807,2.631c-0.538,0.729-1.226,1.275-2.061,1.639
		c-0.571,0.249-1.172,0.373-1.801,0.373c-1.018,0-1.893-0.265-2.625-0.795c-0.732-0.529-1.285-1.208-1.657-2.036
		C1026.079,376.327,1025.959,375.722,1025.959,375.052z M1029.274,376.374c0.348,0.353,0.79,0.528,1.328,0.528
		s0.985-0.176,1.341-0.528c0.355-0.352,0.534-0.792,0.534-1.321c0-0.406-0.107-0.758-0.323-1.056
		c-0.215-0.298-0.488-0.521-0.819-0.67c-0.223-0.1-0.468-0.149-0.732-0.149c-0.405,0-0.753,0.107-1.042,0.323
		c-0.29,0.215-0.51,0.492-0.658,0.831c-0.1,0.224-0.149,0.464-0.149,0.721C1028.752,375.582,1028.926,376.022,1029.274,376.374z"/>
	<path fill="#FFFFFF" d="M1072.846,381.805c-1.448,0-2.634-0.236-3.557-0.708s-1.665-1.204-2.229-2.197
		c-2.309,1.962-5.677,2.942-10.104,2.942c-4.221-0.042-7.391-0.782-9.509-2.223c-0.795-0.537-1.393-1.162-1.794-1.874
		s-0.602-1.635-0.602-2.769c0-1.563,0.45-3.228,1.353-4.99l2.955,1.713c-0.018,0.025-0.061,0.11-0.131,0.255
		s-0.114,0.236-0.13,0.273c-0.018,0.037-0.057,0.12-0.118,0.248c-0.062,0.128-0.104,0.22-0.124,0.273
		c-0.021,0.054-0.057,0.143-0.105,0.267c-0.05,0.124-0.083,0.224-0.1,0.298s-0.042,0.174-0.074,0.298
		c-0.033,0.124-0.055,0.236-0.062,0.335c-0.008,0.1-0.019,0.211-0.031,0.335c-0.012,0.125-0.019,0.249-0.019,0.373
		c0,0.348,0.066,0.766,0.199,1.254c0.38,0.662,1.395,1.167,3.041,1.514c1.44,0.307,3.19,0.46,5.251,0.46
		c1.018,0,1.929-0.035,2.731-0.105c0.802-0.07,1.601-0.199,2.396-0.385c0.795-0.187,1.489-0.46,2.086-0.819
		c0.596-0.36,1.071-0.81,1.427-1.347c0.298-0.439,0.536-0.925,0.714-1.459s0.362-1.219,0.553-2.055l3.476,0.882l-0.509,2.632
		c-0.024,0.148-0.037,0.289-0.037,0.422c0,0.513,0.153,0.941,0.459,1.284c0.307,0.344,0.688,0.588,1.143,0.732
		c0.455,0.146,0.972,0.218,1.552,0.218c0.562,0,1.032,0.186,1.408,0.559c0.377,0.372,0.565,0.84,0.565,1.402
		c0,0.563-0.188,1.03-0.565,1.403c-0.376,0.372-0.846,0.559-1.408,0.559H1072.846z M1057.912,368.857l-2.334,2.334l-2.408-2.396
		l2.384-2.396l2.358,2.358l2.334-2.334l2.408,2.396l-2.384,2.396L1057.912,368.857z"/>
	<path fill="#FFFFFF" d="M1076.917,379.844c-0.529,0.629-1.075,1.107-1.639,1.434c-0.562,0.327-1.291,0.503-2.185,0.528h-0.161
		c-0.562,0-1.03-0.183-1.403-0.547c-0.372-0.363-0.559-0.827-0.559-1.39c0-0.431,0.114-0.801,0.342-1.111s0.516-0.548,0.862-0.714
		c0.224-0.107,0.484-0.161,0.782-0.161c0.836,0,1.585-0.405,2.247-1.217c0.298-0.355,0.598-0.813,0.9-1.372
		c0.302-0.559,0.559-1.069,0.77-1.532c0.211-0.464,0.481-0.948,0.812-1.453s0.679-0.914,1.043-1.229
		c0.753-0.646,1.598-0.969,2.532-0.969h0.124c0.447,0.033,0.863,0.114,1.248,0.242c0.385,0.129,0.716,0.271,0.993,0.429
		s0.548,0.378,0.813,0.664c0.265,0.285,0.479,0.542,0.646,0.77c0.165,0.228,0.345,0.538,0.54,0.931
		c0.194,0.394,0.343,0.716,0.446,0.969c0.104,0.252,0.242,0.606,0.416,1.062c0.438,1.101,0.931,1.87,1.478,2.309
		c0.339,0.265,0.77,0.397,1.291,0.397c0.43,0,0.801,0.116,1.11,0.348c0.311,0.231,0.549,0.521,0.714,0.869
		c0.107,0.223,0.162,0.479,0.162,0.77c0,0.562-0.191,1.026-0.571,1.39c-0.381,0.364-0.853,0.547-1.415,0.547
		c-0.836,0-1.568-0.164-2.197-0.49c-0.629-0.327-1.221-0.768-1.775-1.322c-0.819,1.158-1.875,1.737-3.166,1.737
		c-1.134,0-2.412-0.372-3.835-1.117C1077.638,380.283,1077.182,380.026,1076.917,379.844z M1082.74,378.193
		c0.248,0,0.449-0.155,0.603-0.466c0.152-0.311,0.229-0.64,0.229-0.987c0-0.446-0.19-0.955-0.571-1.526
		c-0.588-0.894-1.315-1.341-2.185-1.341c-0.141,0-0.323,0.207-0.547,0.621c-0.041,0.065-0.223,0.426-0.546,1.079l-0.521,1.056
		c0.96,0.662,1.962,1.146,3.004,1.452C1082.438,378.155,1082.615,378.193,1082.74,378.193z"/>
	<path fill="#FFFFFF" d="M1089.157,381.805c-0.571,0-1.041-0.185-1.409-0.553s-0.552-0.838-0.552-1.409
		c0-0.57,0.184-1.04,0.552-1.409c0.368-0.367,0.838-0.552,1.409-0.552h0.943c0.422,0,0.788-0.009,1.099-0.025
		c0.311-0.016,0.656-0.047,1.037-0.093c0.38-0.045,0.705-0.122,0.974-0.229c0.27-0.107,0.523-0.24,0.764-0.397
		s0.422-0.364,0.546-0.62c0.125-0.257,0.19-0.551,0.199-0.882c0.008-0.124,0.013-0.277,0.013-0.459c0-0.116-0.011-0.226-0.031-0.329
		s-0.059-0.242-0.112-0.416s-0.089-0.29-0.105-0.348s-0.063-0.222-0.143-0.49s-0.143-0.499-0.192-0.689l3.612-1.018
		c0.373,0.902,0.616,2.144,0.732,3.725c0.074,1.514,0.518,2.271,1.328,2.271c0.563,0,1.032,0.186,1.409,0.559
		c0.377,0.372,0.564,0.84,0.564,1.402c0,0.563-0.186,1.03-0.559,1.403c-0.372,0.372-0.84,0.559-1.402,0.559
		c-1.398,0-2.565-0.439-3.501-1.316c-1.308,0.877-3.385,1.316-6.231,1.316H1089.157z M1094.359,386.274l-2.334,2.334l-2.408-2.396
		l2.384-2.396l2.358,2.358l2.334-2.334l2.408,2.396l-2.384,2.396L1094.359,386.274z"/>
	<path fill="#FFFFFF" d="M1111.092,374.754c0,0.845-0.101,1.604-0.304,2.278s-0.48,1.252-0.832,1.731
		c-0.352,0.48-0.799,0.9-1.34,1.261c-0.543,0.359-1.109,0.647-1.701,0.862s-1.278,0.391-2.061,0.527s-1.542,0.231-2.278,0.286
		c-0.736,0.054-1.563,0.089-2.482,0.105h-0.211c-0.562,0-1.03-0.187-1.403-0.559c-0.372-0.373-0.559-0.84-0.559-1.403
		c0-0.57,0.188-1.04,0.565-1.409c0.377-0.367,0.851-0.552,1.421-0.552c3.005,0,5.334-0.231,6.989-0.695
		c0.389-0.107,0.699-0.24,0.931-0.397c-0.653,0.074-1.274,0.112-1.861,0.112c-0.05,0-0.125-0.002-0.224-0.007
		c-0.1-0.004-0.174-0.006-0.224-0.006c-2.119-0.074-3.521-0.534-4.208-1.378v0.013c-0.613-0.795-0.919-1.755-0.919-2.88
		c0-0.373,0.024-0.721,0.074-1.043c0.257-1.415,0.749-2.574,1.478-3.477c0.886-1.183,1.981-1.774,3.29-1.774
		c1.282,0,2.457,0.566,3.525,1.7c1.084,1.233,1.804,2.839,2.16,4.816C1111.034,373.512,1111.092,374.141,1111.092,374.754z
		 M1104.96,362.44l-2.334,2.333l-2.408-2.396l2.384-2.396l2.358,2.358l2.334-2.334l2.408,2.396l-2.384,2.396L1104.96,362.44z
		 M1106.71,371.415c-0.446-0.753-0.943-1.13-1.489-1.13c-0.207,0-0.401,0.059-0.584,0.174c-0.314,0.19-0.575,0.455-0.781,0.795
		c-0.207,0.339-0.311,0.724-0.311,1.154c0,0.19,0.041,0.354,0.124,0.49s0.174,0.242,0.273,0.316
		c0.099,0.075,0.254,0.139,0.465,0.192s0.377,0.087,0.497,0.1c0.119,0.013,0.312,0.031,0.577,0.056
		c0.438,0.042,0.86,0.062,1.266,0.062c0.249,0,0.484-0.013,0.708-0.037C1107.281,372.677,1107.033,371.953,1106.71,371.415z"/>
</g>
<g>
	<g>
		
			<rect x="321.084" y="105.135" fill="none" stroke="#BCC5DE" stroke-width="1.0999" stroke-miterlimit="10" width="201.629" height="319.281"/>
		<g>
			
				<rect x="84.874" y="154.343" fill="none" stroke="#BCC5DE" stroke-width="0.9761" stroke-miterlimit="10" width="236.131" height="270.074"/>
			
				<rect x="277.258" y="136.928" fill="none" stroke="#BCC5DE" stroke-width="0.9761" stroke-miterlimit="10" width="43.826" height="17.458"/>
			
				<line fill="none" stroke="#BCC5DE" stroke-width="0.9761" stroke-miterlimit="10" x1="84.874" y1="213.443" x2="322.079" y2="213.443"/>
			
				<line fill="none" stroke="#BCC5DE" stroke-width="0.9761" stroke-miterlimit="10" x1="84.874" y1="274.225" x2="322.079" y2="274.225"/>
			
				<line fill="none" stroke="#BCC5DE" stroke-width="0.9761" stroke-miterlimit="10" x1="84.874" y1="335.009" x2="322.079" y2="335.009"/>
			
				<rect x="217.2" y="199.375" fill="none" stroke="#BCC5DE" stroke-width="0.9761" stroke-miterlimit="10" width="36.255" height="14.068"/>
			
				<rect x="96.922" y="259.868" fill="none" stroke="#BCC5DE" stroke-width="0.9761" stroke-miterlimit="10" width="36.255" height="14.067"/>
			
				<rect x="259.132" y="172.675" fill="none" stroke="#BCC5DE" stroke-width="0.9761" stroke-miterlimit="10" width="11.414" height="40.769"/>
			
				<rect x="275.015" y="172.675" fill="none" stroke="#BCC5DE" stroke-width="0.9761" stroke-miterlimit="10" width="11.414" height="40.769"/>
			
				<rect x="101.722" y="294.318" fill="none" stroke="#BCC5DE" stroke-width="0.9761" stroke-miterlimit="10" width="11.414" height="40.768"/>
			
				<rect x="117.606" y="294.318" fill="none" stroke="#BCC5DE" stroke-width="0.9761" stroke-miterlimit="10" width="11.414" height="40.768"/>
			
				<rect x="101.329" y="172.675" fill="none" stroke="#BCC5DE" stroke-width="0.9761" stroke-miterlimit="10" width="11.414" height="40.769"/>
		</g>
		<g>
			
				<rect x="522.713" y="154.343" fill="none" stroke="#BCC5DE" stroke-width="0.9761" stroke-miterlimit="10" width="128.26" height="270.074"/>
			
				<line fill="none" stroke="#BCC5DE" stroke-width="0.9761" stroke-miterlimit="10" x1="522.713" y1="213.443" x2="651.326" y2="213.443"/>
			
				<line fill="none" stroke="#BCC5DE" stroke-width="0.9761" stroke-miterlimit="10" x1="522.246" y1="274.225" x2="650.973" y2="274.225"/>
			
				<line fill="none" stroke="#BCC5DE" stroke-width="0.9761" stroke-miterlimit="10" x1="522.713" y1="335.009" x2="650.973" y2="335.009"/>
			
				<rect x="604.81" y="199.375" fill="none" stroke="#BCC5DE" stroke-width="0.9761" stroke-miterlimit="10" width="36.254" height="14.068"/>
			
				<rect x="619.782" y="321.024" fill="none" stroke="#BCC5DE" stroke-width="0.9761" stroke-miterlimit="10" width="21.281" height="14.067"/>
			
				<rect x="628.382" y="241.048" fill="none" stroke="#BCC5DE" stroke-width="0.9761" stroke-miterlimit="10" width="9.066" height="33.177"/>
		</g>
		<g>
			
				<rect x="122.772" y="43.38" fill="none" stroke="#BCC5DE" stroke-width="0.9761" stroke-miterlimit="10" width="164.848" height="35.515"/>
			
				<line fill="none" stroke="#BCC5DE" stroke-width="0.9761" stroke-miterlimit="10" x1="154.343" y1="43.38" x2="154.343" y2="2.369"/>
			
				<line fill="none" stroke="#BCC5DE" stroke-width="0.9761" stroke-miterlimit="10" x1="257.095" y1="43.38" x2="257.095" y2="2.369"/>
		</g>
	</g>
	<g>
		
			<line fill="none" stroke="#1C0003" stroke-width="1.0767" stroke-linecap="round" stroke-linejoin="round" stroke-miterlimit="10" x1="466.696" y1="45.685" x2="466.696" y2="2.369"/>
		
			<line fill="none" stroke="#1C0003" stroke-width="1.0767" stroke-linecap="round" stroke-linejoin="round" stroke-miterlimit="10" x1="594.071" y1="45.685" x2="594.071" y2="2.369"/>
		<rect x="432.191" y="42.798" fill="#FFFFFF" width="197.304" height="9.92"/>
	</g>
</g>
<g>
	<g>
		<g>
			<rect x="306.706" y="408.606" fill="#8A98AD" width="287.207" height="16.056"/>
			<g>
				<rect x="295.714" y="266.901" fill="#AFBACC" width="272.349" height="147.685"/>
				<rect x="568.062" y="266.901" fill="#A1ABBF" width="37.715" height="147.685"/>
			</g>
			<rect x="286.429" y="259.578" fill="#C5CCDB" width="325.561" height="14.647"/>
		</g>
		<g>
			<g>
				<g>
					<rect x="422.988" y="242.468" fill="#234075" width="55.281" height="17.11"/>
					<g>
						<g>
							<g>
								<g>
									<polygon fill="#F69F86" points="410.408,196.712 367.981,214.125 365.094,221.977 410.383,216.973 									"/>
								</g>
								<g>
									<path fill="#E7836F" d="M352.716,218.043l-12.991-1.863c-0.721-0.104-1.237-0.75-1.176-1.477l0,0
										c0.062-0.735,0.692-1.291,1.429-1.26l6.296,0.265L352.716,218.043z"/>
									<path fill="#F69F86" d="M374.77,219.817l-6.575,2.349c0,0-5.781,3.721-12.22,2.156c-4.024-0.978-6.727-0.97-8.189-0.826
										c-0.76,0.075-1.467-0.398-1.657-1.138l-0.002-0.008c-0.201-0.781,0.233-1.588,1-1.833c1.487-0.476,4.063-1.121,6.997-1.072
										l-14.595-6.748c-0.651-0.281-0.913-1.066-0.561-1.682l0,0c0.249-0.434,0.742-0.666,1.235-0.58l18.5,3.336
										c0,0,10.705,0.734,13.736,0.087L374.77,219.817z"/>
								</g>
							</g>
							<g>
								<path fill="#F69F86" d="M425.236,165.497l-22.986,37.055c-2.597,3.53-2.311,8.409,0.68,11.61l0,0
									c3.771,4.037,10.239,3.812,13.721-0.477l25.127-35.399c3.497-4.309,3.021-10.599-1.086-14.331v0
									C436.103,159.784,428.912,160.502,425.236,165.497z"/>
								<g>
									<path fill="#FFFFFF" d="M447.996,160.759c0,0,1.873,12.142-16.076,36.255l-23.506-14.094l15.631-25.663L447.996,160.759z"
										/>
								</g>
							</g>
						</g>
						<g>
							<g>
								<path fill="#F69F86" d="M471.257,180.787l20.394,38.542c1.737,4.023,6.093,6.238,10.368,5.271l0,0
									c5.388-1.219,8.457-6.917,6.511-12.087l-17.883-39.556c-1.955-5.193-7.626-7.956-12.921-6.293l0,0
									C471.808,168.522,468.798,175.093,471.257,180.787z"/>
								<g>
									<path fill="#FFFFFF" d="M476.416,152.945c0,0,15.03,4.312,23.575,32.896l-23.187,12.649l-2.74-4.133
										c-7.242-10.923-7.538-25.042-0.761-36.259L476.416,152.945z"/>
								</g>
							</g>
							<g>
								<g>
									<g>
										<polygon fill="#F69F86" points="505.542,223.231 545.048,187.283 539.193,178.73 498.436,204.257 										"/>
									</g>
								</g>
							</g>
						</g>
						<g>
							<g>
								<path fill="#FFFFFF" d="M455.539,149.92l20.877,3.024c4.385,2.212,3.144,9.468,2.592,14.348l-0.383,13.967l0.867,59.695
									l-57.374,0.726l1.251-73.444c-0.484-6.8-1.678-11.257,4.546-14.04c8.159-3.649,13.541-4.894,17.39-5.117L455.539,149.92z"/>
							</g>
							<path fill="#F69F86" d="M437.684,150.51l4.089-1.43l12.54,0.591l8.14,1.208c0,0-1.892,10.358-16.45,9.88
								C431.59,160.285,437.684,150.51,437.684,150.51z"/>
							<g>
								<path fill="#EF7D0A" d="M472.401,152.364c0,0-17.453,41.829,6.556,52.105l0.628,42.841l-57.548-0.84l1.165-68.406
									c0,0,0.841-19.177,4.714-23.867c0.802-0.972,5.678-2.329,5.678-2.329c-3.472,10.977-2.888,24.327-2.888,24.327l27.174,0.85
									c0,0,3.209-17.127,8.139-25.606L472.401,152.364z"/>
								<rect x="446.606" y="181.141" fill="#FFFFFF" width="11.448" height="4.046"/>
							</g>
						</g>
					</g>
				</g>
				<g>
					<path fill="#1E0501" d="M445.479,121.269l-4.045-11.907c1.624-3.67,4.078-3.115,4.078-3.115
						c-0.048-0.245,3.331-1.912,3.285-2.17c10.767-10.896,19.658-0.43,19.658-0.43s-2.692-10.531-19.246-9.218
						c-11.664,0.925-18.567,5.707-18.502,13.334c0.095,11.313,7.367,15.923,13.153,21.822L445.479,121.269z"/>
					<circle fill="#E7836F" cx="468.455" cy="119.812" r="4.984"/>
					<polygon fill="#F69F86" points="457.143,132.623 459.107,152.659 440.114,152.027 442.252,119.302 					"/>
					<polygon fill="#1E0501" points="458.288,143.714 446.277,131.5 457.143,132.623 					"/>
					<path fill="#F69F86" d="M462.398,98.461c4.71,1.903,7.894,6.902,8.392,11.689c0.575,5.513,0.707,12.956-1.007,17.141
						c-2.649,6.471-8.662,11.365-17.168,9.058c0,0-7.962-1.481-10.946-16.269C437.599,99.907,452.128,94.309,462.398,98.461z"/>
					<path fill="#1E0501" d="M443.883,100.185c-2.958-4.447,2.138,8.263,1.227,18.366c-0.076,0.847-0.763,1.509-1.613,1.529l0,0
						c-0.652,0.015-1.252-0.354-1.533-0.942l-2.494-5.23L443.883,100.185z"/>
					<g>
						<circle fill="#F69F86" cx="438.727" cy="120.441" r="5.132"/>
						
							<path fill="none" stroke="#1C0003" stroke-width="0.4047" stroke-linecap="round" stroke-linejoin="round" stroke-miterlimit="10" d="
							M436.526,118.779c0,0,3.302-0.41,4.028,3.242"/>
					</g>
					<path fill="#1E0501" d="M441.535,102.758c0,0,21.382,7.94,34.425-1.512c0,0-12.49-6.018-25.752-4.908L441.535,102.758z"/>
					<path fill="#1E0501" d="M437.363,98.911c0,0,4.622-10.517,15.297-10.676c10.676-0.16,21.193,6.831,21.193,6.831
						s-5.577,5.238-18.245,5.816C442.94,101.461,437.363,98.911,437.363,98.911z"/>
					<g>
						<g>
							<g>
								<defs>
									<path id="XMLID_50_" d="M454.926,114.676c0,0,3.646-0.333,3.903,1.444c0.256,1.777-4.066,1.781-4.066,1.781
										s-3.741,0.401-3.916-1.269C450.673,114.964,454.926,114.676,454.926,114.676z"/>
								</defs>
								<use xlink:href="#XMLID_50_"  overflow="visible" fill="#FFFFFF"/>
								<clipPath id="XMLID_2_">
									<use xlink:href="#XMLID_50_"  overflow="visible"/>
								</clipPath>
								
									<ellipse transform="matrix(-0.9966 0.0823 -0.0823 -0.9966 918.9156 194.5891)" clip-path="url(#XMLID_2_)" fill="#020202" cx="455.446" cy="116.24" rx="2.248" ry="1.97"/>
							</g>
							<g>
								<defs>
									<path id="XMLID_49_" d="M467.682,114.738c0,0-2.667-0.465-3.021,1.208c-0.355,1.673,2.842,1.854,2.842,1.854
										s2.73,0.534,3.015-1.041C470.802,115.184,467.682,114.738,467.682,114.738z"/>
								</defs>
								<use xlink:href="#XMLID_49_"  overflow="visible" fill="#FFFFFF"/>
								<clipPath id="XMLID_3_">
									<use xlink:href="#XMLID_49_"  overflow="visible"/>
								</clipPath>
								
									<ellipse transform="matrix(0.987 0.1607 -0.1607 0.987 24.758 -73.6324)" clip-path="url(#XMLID_3_)" fill="#020202" cx="467.598" cy="116.246" rx="1.767" ry="1.878"/>
							</g>
							<path fill="#1E0501" d="M450.013,110.475l9.652-0.983c0,0-0.488-2.275-5.061-1.811
								C450.689,108.079,450.013,110.475,450.013,110.475z"/>
							<path fill="#1E0501" d="M471.385,110.142l-6.382-0.65c0,0,0.401-2.284,3.425-1.977
								C471.019,107.777,471.385,110.142,471.385,110.142z"/>
							
								<path fill="none" stroke="#1C0003" stroke-width="0.4047" stroke-linecap="round" stroke-linejoin="round" stroke-miterlimit="10" d="
								M463.47,117.543l2.941,5.699c0,0-1.813,1.948-5.362,0.062"/>
							
								<path fill="none" stroke="#1C0003" stroke-width="0.4047" stroke-linecap="round" stroke-linejoin="round" stroke-miterlimit="10" d="
								M455.521,128.829c0,0,6.783,4.043,11.5-0.359"/>
						</g>
					</g>
				</g>
			</g>
			<g>
				<g>
					<g>
						<path fill="#051A43" d="M571.188,223.293h-62.07c-3.591,0-6.036-3.643-4.675-6.966l18.95-46.282
							c0.777-1.898,2.625-3.138,4.674-3.138h62.07c3.591,0,6.036,3.643,4.674,6.966l-18.949,46.282
							C575.085,222.053,573.238,223.293,571.188,223.293z"/>
						<path fill="#234075" d="M574.104,223.293h-62.07c-3.591,0-6.036-3.643-4.674-6.966l18.949-46.282
							c0.777-1.898,2.625-3.138,4.675-3.138h62.07c3.592,0,6.036,3.643,4.676,6.966l-18.95,46.282
							C578.002,222.053,576.155,223.293,574.104,223.293z"/>
					</g>
					<g>
						<path fill="#051A43" d="M571.719,206.634h-46.577c-0.975,0-1.766-0.791-1.766-1.766l0,0c0-0.975,0.791-1.766,1.766-1.766
							h46.577c0.975,0,1.765,0.791,1.765,1.766l0,0C573.485,205.843,572.694,206.634,571.719,206.634z"/>
						<rect x="528.228" y="205.475" fill="#051A43" width="37.671" height="37.671"/>
						<rect x="531.23" y="205.475" fill="#32598C" width="37.671" height="37.671"/>
					</g>
				</g>
				<g>
					<g>
						<g>
							<path fill="#051A43" d="M579.781,259.578h-83.935v-23.514c0-1.326,1.075-2.401,2.401-2.401h79.132
								c1.326,0,2.401,1.075,2.401,2.401V259.578z"/>
							<path fill="#234075" d="M593.498,259.578h-83.935v-23.514c0-1.326,1.075-2.401,2.401-2.401h79.132
								c1.326,0,2.401,1.075,2.401,2.401V259.578z"/>
						</g>
					</g>
					<path fill="#051A43" d="M500.303,242.545l-22.762,5.452c-3.183,0.646-5.469,3.446-5.469,6.693v4.888h29.763L500.303,242.545z"
						/>
				</g>
				<path fill="#5C7C97" d="M533.659,225.552"/>
			</g>
		</g>
		<g>
			<g>
				<g>
					<path fill="#F23415" d="M303.356,240.718c-0.728,0.5-1.072,1.041-1.072,1.041c-0.01-0.017-0.02-0.033-0.03-0.049
						c-0.781-1.258-2.299-1.586-3.77-1.42c-5.746,0.649-8.006,5.406-5.522,12.771c1.349,4,4.958,6.907,9.18,6.976
						c5.523,0.088,9.217-4.394,10.283-9.842c1.144-5.848-1.309-9.513-6.358-9.927C305.116,240.189,304.142,240.177,303.356,240.718z
						"/>
				</g>
				<g>
					
						<line fill="none" stroke="#000000" stroke-width="0.7253" stroke-linecap="round" stroke-linejoin="round" stroke-miterlimit="10" x1="302.266" y1="242.398" x2="302.291" y2="233.925"/>
					<path fill="#15BCAA" d="M301.978,236.635c0,0-3.073-3.35-8.906,0.081C293.072,236.716,297.006,241.742,301.978,236.635z"/>
				</g>
			</g>
			<g>
				<path fill="#FCD81F" d="M317.785,211.028v48.412h19.833v-32.59c0-3.68-1.742-7.144-4.697-9.336l-11.323-8.405
					C320.022,207.939,317.785,209.065,317.785,211.028z"/>
				<rect x="322.079" y="227.352" fill="#FDF5FF" width="11.246" height="19.629"/>
				<polygon points="323.031,210.172 327.702,205.781 332.5,210.172 328.71,214.387 				"/>
			</g>
			<g>
				<path fill="#3892F9" d="M346.75,238.627l-0.059,20.812l49.446,0.14c0.363,0.001,0.714-0.126,0.992-0.358l6.419-5.367
					l0.026-9.319l-6.388-5.402c-0.277-0.234-0.627-0.363-0.99-0.365L346.75,238.627z"/>
				<path d="M403.578,243.486l-0.033,11.414c-0.001,0.3,0.243,0.545,0.542,0.546l2.174,0.006c0.3,0.001,0.544-0.242,0.545-0.542
					l0.032-11.415c0.001-0.3-0.242-0.545-0.542-0.546l-2.175-0.005C403.823,242.943,403.579,243.185,403.578,243.486z"/>
				<polygon fill="#FFFFFF" points="364.551,238.677 364.491,259.488 382.243,259.559 382.301,238.727 				"/>
			</g>
		</g>
		<g>
			<g>
				<polygon fill="#3892F9" points="538.294,360.155 548.352,400.385 619.181,400.385 628.382,359.086 				"/>
				<rect x="534.516" y="353.59" fill="#234075" width="95.91" height="8.876"/>
				<circle fill="#234075" cx="583.873" cy="358.027" r="8.131"/>
				<g>
					<path fill="#1275BF" d="M556.976,396.299L556.976,396.299c-0.705,0-1.276-0.571-1.276-1.276v-23.238
						c0-0.705,0.572-1.276,1.276-1.276l0,0c0.705,0,1.277,0.571,1.277,1.276v23.238
						C558.253,395.727,557.681,396.299,556.976,396.299z"/>
					<path fill="#1275BF" d="M565.385,396.299L565.385,396.299c-0.705,0-1.277-0.571-1.277-1.276v-23.238
						c0-0.705,0.572-1.276,1.277-1.276l0,0c0.705,0,1.277,0.571,1.277,1.276v23.238C566.662,395.727,566.09,396.299,565.385,396.299
						z"/>
					<path fill="#1275BF" d="M573.794,396.299L573.794,396.299c-0.705,0-1.277-0.571-1.277-1.276v-23.238
						c0-0.705,0.572-1.276,1.277-1.276l0,0c0.705,0,1.276,0.571,1.276,1.276v23.238
						C575.071,395.727,574.499,396.299,573.794,396.299z"/>
					<path fill="#1275BF" d="M582.203,396.299L582.203,396.299c-0.705,0-1.277-0.571-1.277-1.276v-23.238
						c0-0.705,0.572-1.276,1.277-1.276l0,0c0.706,0,1.277,0.571,1.277,1.276v23.238C583.48,395.727,582.909,396.299,582.203,396.299
						z"/>
					<path fill="#1275BF" d="M590.613,396.299L590.613,396.299c-0.706,0-1.276-0.571-1.276-1.276v-23.238
						c0-0.705,0.57-1.276,1.276-1.276l0,0c0.705,0,1.276,0.571,1.276,1.276v23.238C591.889,395.727,591.318,396.299,590.613,396.299
						z"/>
					<path fill="#1275BF" d="M599.022,396.299L599.022,396.299c-0.705,0-1.277-0.571-1.277-1.276v-23.238
						c0-0.705,0.572-1.276,1.277-1.276l0,0c0.705,0,1.277,0.571,1.277,1.276v23.238
						C600.299,395.727,599.727,396.299,599.022,396.299z"/>
					<path fill="#1275BF" d="M607.431,396.299L607.431,396.299c-0.705,0-1.276-0.571-1.276-1.276v-23.238
						c0-0.705,0.571-1.276,1.276-1.276l0,0c0.704,0,1.276,0.571,1.276,1.276v23.238
						C608.707,395.727,608.135,396.299,607.431,396.299z"/>
				</g>
			</g>
			<g>
				<path fill="#1E0501" d="M585.832,379.857h-4.739v-43.596c0-1.309,1.061-2.369,2.37-2.369l0,0c1.309,0,2.369,1.061,2.369,2.369
					V379.857z"/>
				<polygon fill="#3892F9" points="538.294,384.435 548.352,424.665 619.181,424.665 628.382,383.366 				"/>
				<rect x="534.516" y="377.87" fill="#234075" width="95.91" height="8.875"/>
				<circle fill="#234075" cx="583.873" cy="382.307" r="8.131"/>
				<g>
					<path fill="#1275BF" d="M556.976,420.579L556.976,420.579c-0.705,0-1.276-0.571-1.276-1.276v-23.238
						c0-0.705,0.572-1.276,1.276-1.276l0,0c0.705,0,1.277,0.571,1.277,1.276v23.238
						C558.253,420.008,557.681,420.579,556.976,420.579z"/>
					<path fill="#1275BF" d="M565.385,420.579L565.385,420.579c-0.705,0-1.277-0.571-1.277-1.276v-23.238
						c0-0.705,0.572-1.276,1.277-1.276l0,0c0.705,0,1.277,0.571,1.277,1.276v23.238C566.662,420.008,566.09,420.579,565.385,420.579
						z"/>
					<path fill="#1275BF" d="M573.794,420.579L573.794,420.579c-0.705,0-1.277-0.571-1.277-1.276v-23.238
						c0-0.705,0.572-1.276,1.277-1.276l0,0c0.705,0,1.276,0.571,1.276,1.276v23.238
						C575.071,420.008,574.499,420.579,573.794,420.579z"/>
					<path fill="#1275BF" d="M582.203,420.579L582.203,420.579c-0.705,0-1.277-0.571-1.277-1.276v-23.238
						c0-0.705,0.572-1.276,1.277-1.276l0,0c0.706,0,1.277,0.571,1.277,1.276v23.238C583.48,420.008,582.909,420.579,582.203,420.579
						z"/>
					<path fill="#1275BF" d="M590.613,420.579L590.613,420.579c-0.706,0-1.276-0.571-1.276-1.276v-23.238
						c0-0.705,0.57-1.276,1.276-1.276l0,0c0.705,0,1.276,0.571,1.276,1.276v23.238C591.889,420.008,591.318,420.579,590.613,420.579
						z"/>
					<path fill="#1275BF" d="M599.022,420.579L599.022,420.579c-0.705,0-1.277-0.571-1.277-1.276v-23.238
						c0-0.705,0.572-1.276,1.277-1.276l0,0c0.705,0,1.277,0.571,1.277,1.276v23.238
						C600.299,420.008,599.727,420.579,599.022,420.579z"/>
					<path fill="#1275BF" d="M607.431,420.579L607.431,420.579c-0.705,0-1.276-0.571-1.276-1.276v-23.238
						c0-0.705,0.571-1.276,1.276-1.276l0,0c0.704,0,1.276,0.571,1.276,1.276v23.238
						C608.707,420.008,608.135,420.579,607.431,420.579z"/>
				</g>
			</g>
		</g>
	</g>
	<g>
		<g>
			<g>
				<polygon fill="#F69F86" points="233.606,221.591 186.365,209.861 185.496,225.349 226.774,230.087 				"/>
			</g>
			<g>
				<path fill="#F69F86" d="M193.83,164.856c0,0,1.133,33.062-0.172,54.274c-0.182,2.963-2.496,5.359-5.375,6.083l0,0
					c-4.342,1.091-8.61-2.024-8.896-6.492l-4.29-44.479L193.83,164.856z"/>
				<path fill="#FFFFFF" d="M181.71,153.089c0,0-13.21,3.703-7.452,31.141h22.064C196.322,184.23,199.797,154.843,181.71,153.089z"
					/>
			</g>
		</g>
		<g>
			<g>
				<g>
					<g>
						<path fill="#15BCAA" d="M330.19,279.727l16.803,18.972c0.959,1.083,1.183,2.632,0.571,3.942l0,0
							c-0.645,1.379-2.08,2.208-3.596,2.079l-27.084-2.312L330.19,279.727z"/>
						<g>
							<circle fill="#118C7B" cx="327.019" cy="280.022" r="7.304"/>
							<circle fill="#118C7B" cx="318.262" cy="299.114" r="7.305"/>
							<circle fill="#118C7B" cx="319.988" cy="288.103" r="10.045"/>
						</g>
					</g>
				</g>
				<g>
					<g>
						<path fill="#F23415" d="M370.355,327.102c0.202,0.86,0.093,1.49,0.093,1.49c0.019-0.005,0.037-0.011,0.055-0.016
							c1.424-0.406,2.768,0.373,3.745,1.484c3.815,4.345,2.289,9.385-4.502,13.165c-3.689,2.054-8.315,1.777-11.485-1.012
							c-4.147-3.648-3.867-9.449-0.991-14.199c3.086-5.097,7.366-6.16,11.381-3.07C369.408,325.527,370.137,326.173,370.355,327.102
							z"/>
					</g>
					<g>
						
							<line fill="none" stroke="#000000" stroke-width="0.7253" stroke-linecap="round" stroke-linejoin="round" stroke-miterlimit="10" x1="370.032" y1="329.078" x2="375.712" y2="322.791"/>
						<path fill="#15BCAA" d="M374.12,325.008c0,0,4.527-0.413,6.538,6.049C380.658,331.056,374.365,332.131,374.12,325.008z"/>
						<path fill="#15BCAA" d="M373.62,324.578c0,0-0.274-4.539-6.965-5.552C366.655,319.026,366.541,325.408,373.62,324.578z"/>
					</g>
				</g>
				<g>
					<g>
						<path fill="#F23415" d="M275.963,302.605c0.787,0.404,1.196,0.896,1.196,0.896c0.008-0.018,0.016-0.035,0.023-0.053
							c0.614-1.348,2.078-1.865,3.558-1.889c5.781-0.089,8.63,4.34,7.105,11.962c-0.828,4.141-4.037,7.484-8.215,8.089
							c-5.467,0.792-9.702-3.182-11.454-8.45c-1.88-5.653,0.085-9.602,5.04-10.655C274.15,302.306,275.115,302.17,275.963,302.605z"
							/>
					</g>
					<g>
						
							<line fill="none" stroke="#000000" stroke-width="0.7253" stroke-linecap="round" stroke-linejoin="round" stroke-miterlimit="10" x1="277.258" y1="304.133" x2="276.153" y2="295.732"/>
						<path fill="#15BCAA" d="M276.809,298.382c0,0,2.621-3.716,8.844-1.057C285.653,297.325,282.392,302.812,276.809,298.382z"/>
						<path fill="#15BCAA" d="M276.158,298.483c0,0-3.633-2.732-8.743,1.705C267.415,300.188,272.2,304.412,276.158,298.483z"/>
					</g>
				</g>
				<g>
					<path fill="#FCD81F" d="M279.192,348.424l11.239-17.516l-41.616-26.703c-0.305-0.196-0.669-0.277-1.029-0.23l-8.298,1.073
						l-5.032,7.843l2.481,7.99c0.107,0.347,0.334,0.644,0.639,0.839L279.192,348.424z"/>
					<path d="M233.89,313.772l6.165-9.606c0.162-0.253,0.088-0.589-0.165-0.751l-1.83-1.174c-0.252-0.162-0.589-0.09-0.751,0.163
						l-6.165,9.607c-0.162,0.252-0.089,0.589,0.164,0.751l1.83,1.174C233.391,314.098,233.728,314.026,233.89,313.772z"/>
					<polygon fill="#FFFFFF" points="264.211,338.811 275.449,321.296 260.521,311.692 249.271,329.224 					"/>
				</g>
				<g>
					<g>
						<path fill="#EF7D0A" d="M339.267,343.921l-2.317-37.693c-0.046-0.75-0.691-1.32-1.44-1.273l-45.534,2.798
							c-0.75,0.047-1.319,0.691-1.273,1.44l2.316,37.694c0.046,0.75,0.691,1.319,1.441,1.273l45.534-2.798
							C338.742,345.315,339.313,344.671,339.267,343.921z"/>
						<circle fill="#FFFFFF" cx="313.984" cy="326.556" r="9.592"/>
					</g>
					<g>
						
							<rect x="273.66" y="327.187" transform="matrix(0.0614 0.9981 -0.9981 0.0614 603.0425 14.3309)" fill="#460C1F" width="40.483" height="1.208"/>
					</g>
					<g>
						
							<rect x="314.369" y="324.685" transform="matrix(0.0613 0.9981 -0.9981 0.0613 638.7621 -28.6465)" fill="#460C1F" width="40.484" height="1.208"/>
					</g>
				</g>
				<g>
					<g>
						
							<path fill="none" stroke="#FFFFFF" stroke-width="3.795" stroke-linecap="round" stroke-linejoin="round" stroke-miterlimit="10" d="
							M274.101,260.033l-8.088-28.148c-0.826-2.876-3.457-4.857-6.449-4.857h-18.03"/>
						<path fill="#EF7D0A" d="M244.374,234.298h-59.291c-2.989,0-5.412-2.423-5.412-5.412l0,0c0-2.988,2.423-5.412,5.412-5.412
							h59.291c2.988,0,5.411,2.423,5.411,5.412l0,0C249.785,231.875,247.362,234.298,244.374,234.298z"/>
						<circle fill="#051A43" cx="248.148" cy="413.229" r="11.94"/>
						<circle fill="#051A43" cx="382.912" cy="413.229" r="11.94"/>
						<circle fill="#051A43" cx="295.291" cy="413.229" r="11.94"/>
						<circle fill="#051A43" cx="339.101" cy="413.229" r="11.94"/>
						
							<path fill="none" stroke="#FFFFFF" stroke-width="3.795" stroke-linecap="round" stroke-linejoin="round" stroke-miterlimit="10" d="
							M187.962,228.886l12.031,0.356c2.92,0.064,5.464,2.011,6.288,4.814l34.599,117.569l101.723-4.719l13.434-85.668l-141.456-2.08
							"/>
						
							<polyline fill="none" stroke="#FFFFFF" stroke-width="3.795" stroke-linecap="round" stroke-linejoin="round" stroke-miterlimit="10" points="
							356.037,261.238 416.358,261.238 402.174,344.954 342.603,346.906 						"/>
						
							<path fill="none" stroke="#FFFFFF" stroke-width="3.795" stroke-linecap="round" stroke-linejoin="round" stroke-miterlimit="10" d="
							M240.88,351.625l-7.891,32.481c-1.909,7.857,4.042,15.427,12.128,15.427h156.334"/>
						
							<path fill="none" stroke="#FFFFFF" stroke-width="3.795" stroke-linecap="round" stroke-linejoin="round" stroke-miterlimit="10" d="
							M290.431,349.257l-7.868,30.144c-1.688,6.467,0.649,13.316,5.937,17.403l3.534,2.729"/>
					</g>
					
						<line fill="none" stroke="#FFFFFF" stroke-width="1.8975" stroke-linecap="round" stroke-linejoin="round" stroke-miterlimit="10" x1="246.85" y1="259.554" x2="267.357" y2="350.347"/>
					
						<line fill="none" stroke="#FFFFFF" stroke-width="1.8975" stroke-linecap="round" stroke-linejoin="round" stroke-miterlimit="10" x1="321.084" y1="261.238" x2="313.985" y2="348.151"/>
					
						<line fill="none" stroke="#FFFFFF" stroke-width="1.8975" stroke-linecap="round" stroke-linejoin="round" stroke-miterlimit="10" x1="284.1" y1="260.033" x2="290.431" y2="349.257"/>
					
						<line fill="none" stroke="#FFFFFF" stroke-width="1.8975" stroke-linecap="round" stroke-linejoin="round" stroke-miterlimit="10" x1="388.319" y1="261.238" x2="373.812" y2="345.825"/>
					
						<polyline fill="none" stroke="#FFFFFF" stroke-width="1.8975" stroke-linecap="round" stroke-linejoin="round" stroke-miterlimit="10" points="
						224.154,293.016 351.863,286.089 411.438,286.089 					"/>
					
						<polyline fill="none" stroke="#FFFFFF" stroke-width="1.8975" stroke-linecap="round" stroke-linejoin="round" stroke-miterlimit="10" points="
						233.29,325.833 347.195,317.63 406.803,317.63 					"/>
				</g>
			</g>
			<path fill="#F69F86" d="M221.282,223.46c0,0,3.905-4.3,13.177-3.921c10.645,0.436,8.06,9.751,3.91,11.761
				c-3.006,1.456-10.992,3.253-10.691-4.126C227.847,223.002,221.282,223.46,221.282,223.46z"/>
		</g>
		<g>
			<g>
				<g>
					<g>
						<polygon fill="#F69F86" points="144.311,370.776 136.332,381.648 125.272,375.339 133.624,364.075 						"/>
						<path d="M139.035,379.275c0,0-6.107,9.015-1.976,17.976c2.379,5.16,4.686,9.211,6.324,12.032
							c1.642,2.827,1.575,6.327-0.148,9.104l0,0l-21.192-13.141l-4.708-8.521l-3.557,3.396l-6.742-4.182l19.347-24.51
							L139.035,379.275z"/>
					</g>
					<path fill="#1D86E6" d="M180.37,211.59l4.268,6.309l9.361,93.263l-44.555,65.884l-26.655-14.493l35.035-55.72l-5.788-71.97
						c0,0,3.463-14.33,17.215-23.273h17.4H180.37z"/>
				</g>
				<g>
					<g>
						<polygon fill="#F69F86" points="192.411,383.513 192.323,396.96 179.599,397.448 179.797,383.471 						"/>
						<path d="M193.364,393.517c0,0-0.422,10.881,7.821,16.306c4.746,3.123,8.845,5.344,11.727,6.873
							c2.887,1.533,4.68,4.54,4.685,7.809l0,0l-24.936,0.04l-8.499-4.745l-1.226,4.762l-7.933,0.013l3.476-31.032L193.364,393.517z"
							/>
					</g>
					<path fill="#3892F9" d="M184.637,217.899l-3.33,22.294l19.302,58.87c1.361,4.353,2.083,8.88,2.146,13.44l-1.746,73.572
						l-28.395-0.12l-2.318-76.089l-25.708-58.196c-7.684-17.278-1.666-34.569,2.376-40.081l24.855,0.406L184.637,217.899z"/>
				</g>
			</g>
			<g>
				<path fill="#8F3926" d="M166.673,88.641c0,0,12.313-0.635,18.25,7.613s-3.833,15.607-3.833,15.607L166.673,88.641z"/>
				<polygon fill="#8F3926" points="148.426,103.754 145.152,141.116 185.475,141.38 181.894,103.506 				"/>
				<circle fill="#8F3926" cx="165.497" cy="105.933" r="17.208"/>
				<circle fill="#E7836F" cx="183.518" cy="115.904" r="4.886"/>
				<polygon fill="#F69F86" points="170.839,128.975 173.144,152.122 156.168,151.992 158.815,115.216 				"/>
				<polygon fill="#1E0501" points="171.866,139.287 163.703,128.995 170.707,127.704 				"/>
				<path fill="#F69F86" d="M178.262,94.932c4.603,1.902,7.47,6.867,7.922,11.563c0.521,5.409,0.596,12.706-1.115,16.796
					c-2.646,6.323-8.359,11.034-16.682,8.709c0,0-7.794-1.512-10.608-16.03C153.941,96.164,168.226,90.785,178.262,94.932z"/>
				<path fill="#8F3926" d="M158.782,117.948c0,0,5.496-11.957-1.969-14.571l-3.259,5.601L158.782,117.948z"/>
				<g>
					<circle fill="#F69F86" cx="154.892" cy="116.302" r="5.031"/>
					
						<path fill="none" stroke="#1C0003" stroke-width="0.3968" stroke-linecap="round" stroke-linejoin="round" stroke-miterlimit="10" d="
						M152.747,114.656c0,0,3.24-0.377,3.924,3.208"/>
					<circle fill="#FFFFFF" cx="154.672" cy="121.22" r="0.972"/>
				</g>
				<g>
					<g>
						<g>
							<defs>
								<path id="XMLID_46_" d="M170.056,110.275c0,0,3.581-0.181,3.81,1.541c0.229,1.722-4.012,1.56-4.012,1.56
									s-3.674,0.243-3.823-1.373C165.882,110.388,170.056,110.275,170.056,110.275z"/>
							</defs>
							<use xlink:href="#XMLID_46_"  overflow="visible" fill="#FFFFFF"/>
							<clipPath id="XMLID_4_">
								<use xlink:href="#XMLID_46_"  overflow="visible"/>
							</clipPath>
							<path clip-path="url(#XMLID_4_)" fill="#020202" d="M168.347,111.893c0.074,1.048,1.119,1.857,2.333,1.806
								c1.215-0.051,2.141-0.942,2.066-1.99c-0.074-1.049-1.118-1.857-2.333-1.806C169.198,109.954,168.273,110.845,168.347,111.893
								z"/>
						</g>
						<g>
							<defs>
								<path id="XMLID_45_" d="M182.702,110.855c0,0-2.544-0.129-2.756,1.278c-0.212,1.408,2.812,1.253,2.812,1.253
									s2.609,0.18,2.761-1.14S182.702,110.855,182.702,110.855z"/>
							</defs>
							<use xlink:href="#XMLID_45_"  overflow="visible" fill="#FFFFFF"/>
							<clipPath id="XMLID_5_">
								<use xlink:href="#XMLID_45_"  overflow="visible"/>
							</clipPath>
							<path clip-path="url(#XMLID_5_)" fill="#020202" d="M184.395,112.169c-0.083,0.856-0.894,1.521-1.812,1.483
								s-1.596-0.762-1.514-1.619c0.083-0.857,0.894-1.521,1.811-1.483C183.8,110.588,184.477,111.312,184.395,112.169z"/>
						</g>
						<path fill="#8F3926" d="M165.481,108.081l9.338-1.698c0,0-0.697-1.849-5.121-1.045
							C165.909,106.026,165.481,108.081,165.481,108.081z"/>
						<path fill="#8F3926" d="M187.141,107.631l-6.686-1.136c0,0,0.56-1.667,3.727-1.129
							C186.895,105.826,187.141,107.631,187.141,107.631z"/>
						
							<path fill="none" stroke="#1C0003" stroke-width="0.3968" stroke-linecap="round" stroke-linejoin="round" stroke-miterlimit="10" d="
							M178.846,115.369l0.93,3.83c0,0-0.715,2.362-4.741,0.386"/>
					</g>
					
						<path fill="none" stroke="#1C0003" stroke-width="0.3968" stroke-linecap="round" stroke-linejoin="round" stroke-miterlimit="10" d="
						M170.643,123.538c0,0,7.027,4.758,12.004-0.513"/>
				</g>
				<path fill="#8F3926" d="M157.775,107.406c0,0,21.641-3.836,19.418-14.093c0,0-4.443-6.261-14.865-4.296
					c-10.423,1.965-9.494,14.261-9.494,14.261L157.775,107.406z"/>
			</g>
			<g>
				<g>
					<path fill="#FFFFFF" d="M181.477,152.443l3.237,1.251c4.431,1.58,4.623,10.369,5.62,14.966
						c1.386,6.391-5.186,23.495-5.186,23.495l-0.511,25.745l-39.481-1.61l1.653-24.614l-13.172-25.52
						c-0.629-2.815,1.386-10.332,4.164-11.11l10.767-3.55L181.477,152.443z"/>
					<g>
						<path fill="#F69F86" d="M170.62,147.885l10.857,4.557c0,0,2.309,7.884-9.994,8.466c-16.289,0.769-22.915-9.413-22.915-9.413
							l13.735-3.674L170.62,147.885z"/>
						
							<path fill="none" stroke="#1C0003" stroke-width="0.3764" stroke-linecap="round" stroke-linejoin="round" stroke-miterlimit="10" d="
							M187.868,184.131c0,0,2.572-7.043,0.813-18.494"/>
					</g>
				</g>
				<g>
					<path fill="#F69F86" d="M200.169,227.446c-3.314-4.746-7.946-4.669-7.946-4.669l-18.018-3.187l3.26,10.281l7.015,0.487
						c0.222,3.715,0.733,7.252,5.474,8.55C198.514,241.251,203.484,232.192,200.169,227.446z"/>
					<g>
						<polygon fill="#F69F86" points="187.623,222.971 144.056,211.996 143.187,227.49 184.481,230.359 						"/>
					</g>
				</g>
				<g>
					<g>
						<path fill="#F69F86" d="M151.525,165.102c0,0,1.132,34.945-0.172,56.166c-0.183,2.964-2.497,5.361-5.377,6.084l0,0
							c-4.344,1.091-8.614-2.025-8.899-6.495l-4.292-46.366L151.525,165.102z"/>
						<g>
							<path fill="#FFFFFF" d="M134.509,157.594c-3.051,3.933-5.748,11.722-2.564,26.89h22.073c0,0,6.1-23.348-9.404-29.493
								C141.005,153.561,136.887,154.527,134.509,157.594z"/>
							
								<polyline fill="none" stroke="#1C0003" stroke-width="0.3764" stroke-linecap="round" stroke-linejoin="round" stroke-miterlimit="10" points="
								154.246,170.569 154.456,184.561 152.047,184.561 							"/>
						</g>
					</g>
				</g>
			</g>
		</g>
	</g>
	
		<line fill="none" stroke="#1C0003" stroke-width="1.0075" stroke-linecap="round" stroke-linejoin="round" stroke-miterlimit="10" x1="677.355" y1="424.662" x2="60.954" y2="424.662"/>
</g>
<g>
	<defs>
		<rect id="SVGID_7_" x="963.79" y="69.891" width="159.604" height="106.404"/>
	</defs>
	<clipPath id="SVGID_8_">
		<use xlink:href="#SVGID_7_"  overflow="visible"/>
	</clipPath>
	<g clip-path="url(#SVGID_8_)">
		<defs>
			<rect id="SVGID_9_" x="963.79" y="69.891" width="159.604" height="106.404"/>
		</defs>
		<clipPath id="SVGID_10_">
			<use xlink:href="#SVGID_9_"  overflow="visible"/>
		</clipPath>
		<path clip-path="url(#SVGID_10_)" fill="#009397" d="M998.4,93.33c-0.592-0.77-1.291-1.353-2.086-1.744
			c-0.791-0.393-1.676-0.58-2.654-0.58c-1.693,0-3.146,0.563-4.357,1.705c-1.205,1.136-1.805,2.503-1.805,4.111
			c0,1.642,0.598,3.026,1.791,4.174c1.193,1.145,2.635,1.714,4.326,1.714c0.947,0,1.822-0.188,2.629-0.559
			c0.797-0.364,1.516-0.917,2.156-1.642v1.913h1.516V91.291H998.4V93.33z M997.896,99.194c-0.4,0.669-0.982,1.208-1.736,1.601
			c-0.752,0.398-1.545,0.592-2.387,0.592c-0.828,0-1.611-0.199-2.334-0.592c-0.727-0.405-1.311-0.96-1.738-1.671
			c-0.434-0.722-0.645-1.473-0.645-2.254c0-0.789,0.207-1.54,0.635-2.242c0.428-0.713,1.008-1.268,1.729-1.654
			c0.723-0.393,1.512-0.588,2.365-0.588c1.328,0,2.449,0.431,3.355,1.3c0.91,0.865,1.363,1.944,1.363,3.227
			C998.503,97.757,998.302,98.514,997.896,99.194"/>
	</g>
	<g clip-path="url(#SVGID_8_)">
		<path fill="#009397" d="M1015.189,94.762c0-1.046-0.02-1.905-0.082-2.742h1.611l0.084,1.633h0.062
			c0.566-0.963,1.508-1.863,3.184-1.863c1.383,0,2.43,0.838,2.869,2.031h0.043c0.314-0.565,0.711-1.004,1.131-1.319
			c0.607-0.46,1.277-0.711,2.24-0.711c1.34,0,3.33,0.879,3.33,4.398v5.969h-1.801v-5.738c0-1.948-0.713-3.121-2.199-3.121
			c-1.047,0-1.865,0.775-2.178,1.675c-0.084,0.252-0.146,0.586-0.146,0.921v6.263h-1.801v-6.075c0-1.611-0.713-2.785-2.115-2.785
			c-1.152,0-1.99,0.921-2.283,1.842c-0.105,0.273-0.148,0.587-0.148,0.902v6.115h-1.801V94.762z"/>
	</g>
	<g clip-path="url(#SVGID_8_)">
		<defs>
			<rect id="SVGID_11_" x="963.79" y="69.891" width="159.604" height="106.404"/>
		</defs>
		<clipPath id="SVGID_12_">
			<use xlink:href="#SVGID_11_"  overflow="visible"/>
		</clipPath>
		<polygon clip-path="url(#SVGID_12_)" fill="#009397" points="1011.618,91.289 1007.64,99.863 1003.538,91.289 1001.915,91.289 
			1006.816,101.578 1004.515,106.489 1006.136,106.489 1013.249,91.289 		"/>
		<path clip-path="url(#SVGID_12_)" fill="#009397" d="M1043.038,93.33c-0.598-0.77-1.293-1.353-2.084-1.744
			c-0.797-0.393-1.684-0.58-2.662-0.58c-1.695,0-3.148,0.563-4.354,1.705c-1.209,1.136-1.809,2.503-1.809,4.111
			c0,1.642,0.598,3.026,1.791,4.174c1.199,1.145,2.639,1.714,4.324,1.714c0.951,0,1.828-0.188,2.633-0.559
			c0.799-0.364,1.518-0.917,2.16-1.642v1.913h1.51V91.291h-1.51V93.33z M1042.529,99.194c-0.402,0.669-0.984,1.208-1.732,1.601
			c-0.756,0.398-1.547,0.592-2.385,0.592c-0.834,0-1.617-0.199-2.342-0.592c-0.729-0.405-1.305-0.96-1.736-1.671
			c-0.434-0.722-0.648-1.473-0.648-2.254c0-0.789,0.215-1.54,0.645-2.242c0.424-0.713,1.002-1.268,1.723-1.654
			c0.721-0.393,1.514-0.588,2.367-0.588c1.324,0,2.449,0.431,3.355,1.3c0.916,0.865,1.363,1.944,1.363,3.227
			C1043.138,97.757,1042.935,98.514,1042.529,99.194"/>
		<path clip-path="url(#SVGID_12_)" fill="#009397" d="M986.236,91.121c-0.555,0-1.088,0.155-1.596,0.469
			c-0.508,0.312-0.996,0.78-1.457,1.411V91.4h-1.541v10.947h1.541v-3.702c0-1.899,0.092-3.164,0.283-3.785
			c0.24-0.807,0.602-1.409,1.068-1.793c0.469-0.386,0.951-0.58,1.453-0.58c0.219,0,0.482,0.065,0.801,0.19l0.785-1.188
			C987.101,91.243,986.654,91.121,986.236,91.121"/>
		<path clip-path="url(#SVGID_12_)" fill="#009397" d="M1070.986,126.011l0.125-0.078h10.648c3.59,0,6.502-3.104,6.502-6.928
			c0-3.831-2.912-6.929-6.502-6.929h-30.898v13.412c0.916,7.463,4.834,14.111,10.645,18.944c4.502,3.757,10.15,6.417,16.42,7.515
			h10.006l-13.416-20.531L1070.986,126.011z"/>
		<path clip-path="url(#SVGID_12_)" fill="#32A536" d="M1111.659,120.983v30.964h-10.803l-11.346-17.363
			c5.75-2.883,9.705-8.906,9.705-15.863c0-9.328-7.111-16.976-16.117-17.631c-0.375-0.03-0.754-0.041-1.131-0.042h-31.107V91.15
			h33.518C1099.925,93.88,1111.659,106.2,1111.659,120.983"/>
		<g opacity="0.2" clip-path="url(#SVGID_12_)">
			<g>
				<defs>
					<rect id="SVGID_13_" x="1052.63" y="92.139" width="57.244" height="51.509"/>
				</defs>
				<clipPath id="SVGID_14_">
					<use xlink:href="#SVGID_13_"  overflow="visible"/>
				</clipPath>
				<path clip-path="url(#SVGID_14_)" fill="#FFFFFF" d="M1109.874,122.982v20.667c-0.543-0.07-1.078-0.143-1.609-0.226
					c-4.512-0.688-8.867-1.736-13.021-3.107l-3.611-5.363c5.318-3.273,8.879-9.274,8.879-16.14c0-9.594-6.969-17.511-15.955-18.635
					v-0.135h-30.693c-0.451-1.725-0.805-3.474-1.055-5.252c-0.066-0.459-0.125-0.926-0.178-1.395v-1.256h30.363
					c0.275,0.042,0.553,0.093,0.83,0.145C1098.671,95.092,1109.874,107.77,1109.874,122.982"/>
			</g>
		</g>
		<g opacity="0.2" clip-path="url(#SVGID_12_)">
			<g>
				<defs>
					<rect id="SVGID_15_" x="1059.982" y="112.814" width="27.432" height="12.76"/>
				</defs>
				<clipPath id="SVGID_16_">
					<use xlink:href="#SVGID_15_"  overflow="visible"/>
				</clipPath>
				<path clip-path="url(#SVGID_16_)" fill="#FFFFFF" d="M1087.413,118.984c0,3.406-2.711,6.171-6.055,6.171
					c-0.039,0-0.08,0-0.121-0.002v0.421l-0.262-0.386l-0.027-0.033h-10.207c-0.787-0.651-1.551-1.322-2.291-2.011
					c-3.375-3.123-6.232-6.596-8.469-10.33h21.256v0.004c0.041-0.004,0.082-0.004,0.121-0.004
					C1084.702,112.814,1087.413,115.577,1087.413,118.984"/>
			</g>
		</g>
	</g>
</g>
<g>
	<path fill="#009397" d="M991.886,141.126c-2.811,0-5.033-0.782-6.668-2.346c-1.639-1.578-2.455-3.736-2.455-6.474v-20.136h3.822
		l-0.043,19.962c0,3.535,1.781,5.302,5.344,5.302V141.126z"/>
	<path fill="#009397" d="M1018.3,141.126c-2.332,0-4.25-0.607-5.756-1.825c-1.332,3.91-3.969,5.865-7.906,5.865
		c-3.883,0-6.496-1.866-7.842-5.604c-1.348,1.043-3.121,1.564-5.322,1.564H990.8v-3.691h0.674c2.779-0.044,4.227-1.317,4.344-3.824
		c0.16-3.358,1.014-5.995,2.564-7.906c1.562-1.941,3.648-2.912,6.256-2.912c5.488,0,8.348,3.469,8.58,10.406
		c0,2.823,1.693,4.236,5.082,4.236h0.695v3.691H1018.3z M1004.638,126.182c-3.115,0-4.672,2.578-4.672,7.733
		c0,5.039,1.557,7.56,4.672,7.56c3.143,0,4.713-2.492,4.713-7.474C1009.351,128.788,1007.781,126.182,1004.638,126.182z"/>
	<path fill="#009397" d="M1026.837,132.307c0,5.88-2.99,8.819-8.971,8.819v-3.691c3.432,0,5.148-1.767,5.148-5.302v-11.816h3.822
		V132.307z M1022.341,149.121v-4.126h3.846v4.126H1022.341z M1016.345,149.121v-4.126h3.781v4.126H1016.345z"/>
	<path fill="#009397" d="M1031.14,141.126v-28.955h3.822v28.955H1031.14z"/>
	<path fill="#009397" d="M1044.976,140.107c0,2.519-0.717,4.641-2.15,6.363c-1.535,1.854-3.549,2.737-6.039,2.651v-3.389
		c1.768-0.102,3.012-1.063,3.736-2.889c0.318-0.739,0.514-1.658,0.588-2.76c0.027-0.391,0.043-0.824,0.043-1.303v-18.463h3.822
		V140.107z"/>
</g>
</svg>
