<svg width="302" height="302" viewBox="0 0 302 302" fill="none" xmlns="http://www.w3.org/2000/svg">
<rect width="302" height="302" fill="white"/>
<g clip-path="url(#clip0)">
<rect width="288" height="236" transform="translate(0 20)" fill="white"/>
<path d="M229.375 72.8504H84.5864C79.0456 72.8504 74.554 77.3437 74.554 82.8864V174.538C74.554 180.081 79.0456 184.574 84.5864 184.574H229.375C234.916 184.574 239.407 180.081 239.407 174.538V82.8864C239.407 77.3437 234.916 72.8504 229.375 72.8504Z" fill="#4A78CC"/>
<path d="M239.407 82.879V163.27H74.5906V82.879C74.5906 80.2193 75.6468 77.6685 77.5269 75.7877C79.407 73.907 81.9569 72.8504 84.6157 72.8504H229.382C232.041 72.8504 234.591 73.907 236.471 75.7877C238.351 77.6685 239.407 80.2193 239.407 82.879V82.879Z" fill="#473F47"/>
<path d="M236.928 84.7938V160.585H77.0547V84.7938C77.0702 82.2267 78.104 79.7709 79.9289 77.966C81.7538 76.1612 84.2203 75.155 86.7865 75.1686H227.197C229.763 75.155 232.229 76.1612 234.054 77.966C235.879 79.7709 236.913 82.2267 236.928 84.7938V84.7938Z" fill="white"/>
<path opacity="0.18" d="M236.928 84.7938V160.585H77.0547V84.7938C77.0702 82.2267 78.104 79.7709 79.9289 77.966C81.7538 76.1612 84.2203 75.155 86.7865 75.1686H227.197C229.763 75.155 232.229 76.1612 234.054 77.966C235.879 79.7709 236.913 82.2267 236.928 84.7938V84.7938Z" fill="#4A78CC"/>
<path d="M151.125 55.0233H86.6985V100.552H151.125V55.0233Z" fill="#4A78CC"/>
<path d="M211.525 80.9716C211.429 79.5997 211.525 78.1912 211.378 76.8266C211.152 74.8588 210.512 72.9611 209.501 71.258C208.49 69.555 207.13 68.085 205.511 66.9447C202.233 64.6732 198.235 63.6839 194.276 64.1643C187.859 64.8979 182.469 69.2996 179.381 74.8532C175.868 81.1697 179.154 86.3417 181.992 92.0714C184.119 96.3557 182.865 101.704 180.107 105.614C177.944 108.673 174.746 111.608 175.018 115.349C175.186 117.624 176.638 119.568 178.039 121.365C178.978 122.568 180.027 123.845 181.508 124.189C182.255 124.325 183.02 124.325 183.767 124.189C185.44 123.953 187.098 123.618 188.732 123.184C190.316 122.759 191.944 122.231 193.572 122.451C196.329 122.803 198.368 125.129 199.959 127.395C201.551 129.662 203.12 132.186 205.65 133.316C207.572 134.181 209.772 134.101 211.869 133.925C217.993 133.418 224.483 131.995 228.693 127.52C229.623 126.492 230.478 125.399 231.252 124.248C231.726 123.644 232.109 122.975 232.389 122.26C233.122 120.125 231.949 117.858 230.629 115.988C229.309 114.117 227.695 112.319 227.505 110.075C227.329 108.314 228.033 106.604 228.238 104.858C228.685 101.528 227.387 98.1458 225.305 95.4974C223.148 92.9214 220.563 90.7373 217.663 89.0415C215.463 87.6623 213.116 86.2317 212.089 83.9061C211.729 82.9691 211.538 81.9755 211.525 80.9716Z" fill="#FC682D"/>
<path d="M207.924 87.5963C208.408 89.0635 208.657 90.6408 209.501 91.9613C210.527 93.634 212.273 94.7051 214.003 95.6295C214.937 96.0457 215.783 96.6358 216.497 97.3681C216.994 98.0043 217.342 98.7439 217.516 99.5324C217.768 100.569 217.83 101.643 217.7 102.702C217.491 103.583 217.434 104.493 217.531 105.394C217.788 106.516 218.704 107.338 219.504 108.167C221.096 109.669 222.171 111.636 222.576 113.787C222.87 115.944 221.997 118.343 220.09 119.399C219.399 119.754 218.657 120.002 217.89 120.133C216.659 120.376 215.411 120.528 214.157 120.587C213.264 120.654 212.366 120.58 211.495 120.367C210.434 119.988 209.443 119.435 208.562 118.731L196.887 110.427C195.529 109.592 194.355 108.491 193.433 107.191C192.793 106.014 192.369 104.732 192.178 103.406C191.54 100.185 191.049 96.7372 192.296 93.7C193.264 91.3231 195.185 89.4817 197.048 87.7136L201.778 83.2385C203.15 81.94 204.228 81.3678 205.445 82.9597C206.519 84.3593 207.356 85.9256 207.924 87.5963Z" fill="url(#paint0_linear)"/>
<path d="M216.057 130.095C219.936 134.446 221.55 139.801 224.491 144.768C224.837 145.478 225.366 146.083 226.023 146.521C227.101 147.108 228.443 146.697 229.529 146.125C238.263 141.459 239.063 128.114 247.628 123.148C249.616 122.003 251.874 121.402 253.847 120.213C254.581 119.773 255.373 118.988 255.079 118.181C254.945 117.933 254.759 117.717 254.533 117.547C254.308 117.378 254.049 117.259 253.774 117.198C251.519 116.419 249.125 116.122 246.748 116.325C245.685 116.42 244.203 116.325 244.086 115.247C244.115 114.937 244.115 114.625 244.086 114.315C243.851 113.537 242.553 113.823 242.231 114.572C241.908 115.32 242.15 116.171 242.121 116.985C241.974 118.26 241.482 119.47 240.698 120.485C238.849 123.336 236.826 126.07 234.64 128.672C228.451 136.008 226.889 124.307 221.997 121.864C221.532 121.671 221.034 121.569 220.53 121.563C216.174 121.265 211.813 121.177 207.447 121.299C208.995 122.539 214.663 128.54 216.057 130.095Z" fill="#F4DBBD"/>
<path d="M203.575 103.01C203.575 103.01 216.248 108.725 216.996 110.221C217.744 111.718 216.996 154.415 216.996 154.415H172.319L174.886 109.422L187.954 104.066L203.575 103.01Z" fill="#4A78CC"/>
<path d="M172.312 154.422H216.996C216.996 154.422 217.729 111.725 216.996 110.214C216.262 108.703 203.575 103.01 203.575 103.01L187.962 104.059L174.893 109.414L173.654 131.02L172.312 154.422Z" fill="url(#paint1_linear)"/>
<path d="M216.996 110.199L227.637 123.757C225.495 130.088 216.996 138.121 216.996 138.121V110.199Z" fill="#4A78CC"/>
<path d="M216.996 122.517L223.647 130.697L216.996 138.143V122.517Z" fill="url(#paint2_linear)"/>
<path d="M203.252 96.9353C202.82 99.2389 203.487 100.992 203.582 103.105C203.714 106.238 200.399 111.131 199.079 113.992C198.654 114.916 198.148 115.922 197.217 116.34C196.558 116.58 195.85 116.653 195.156 116.552C194.122 116.579 193.098 116.344 192.178 115.87C190.976 115.137 190.455 113.669 190.037 112.305C189.355 110.104 187.624 106.619 188.042 104.352C188.174 103.619 188.834 102.885 189.018 102.093C189.191 101.068 189.248 100.027 189.186 98.9895C189.135 93.4726 203.252 96.9353 203.252 96.9353Z" fill="#F4DBBD"/>
<path d="M203.252 96.9353C203.252 96.9353 201.463 106.531 195.765 105.974C194.21 105.879 192.727 105.285 191.538 104.279C190.348 103.273 189.516 101.909 189.164 100.391L203.252 96.9353Z" fill="#E0BE99"/>
<path d="M203.751 95.2773C203.405 96.8114 202.805 98.2768 201.976 99.613C199.644 103.024 194.349 104.073 190.844 101.814C188.956 100.457 187.496 98.5886 186.634 96.4291C184.584 91.9065 183.898 86.8835 184.661 81.9767C184.863 80.0611 185.595 78.2396 186.774 76.7166C188.849 74.3176 192.391 73.694 195.574 73.8628C198.456 74.0168 201.441 74.7358 203.604 76.5772C204.771 77.6087 205.638 78.9368 206.111 80.4208C206.585 81.9047 206.649 83.4893 206.296 85.0066C205.482 88.4253 204.682 91.8586 203.751 95.2773Z" fill="#F4DBBD"/>
<path d="M136.927 108.439C136.453 107.98 135.866 107.656 135.225 107.5C134.578 107.417 133.927 107.368 133.275 107.353C131.932 107.199 130.524 106.487 129.314 107.089C128.907 107.325 128.571 107.668 128.343 108.08C128.114 108.492 128.002 108.958 128.016 109.429C128.053 110.37 128.323 111.288 128.801 112.099C130.825 115.951 133.803 117.235 137.301 119.296C139.141 120.382 140.425 122.964 141.701 124.762L146.328 131.174C148.221 133.793 150.142 136.448 152.672 138.466C153.083 138.823 153.555 139.104 154.065 139.295C154.994 139.518 155.971 139.419 156.838 139.016C160.504 137.6 163.768 134.915 166.936 132.597C168.403 131.511 169.921 130.396 171.395 129.303C172.033 128.826 173.221 128.217 173.632 127.498C173.858 127.04 173.99 126.541 174.02 126.031C174.578 121.703 173.808 117.293 173.918 112.928C169.092 118.445 163.519 124.278 157.05 127.836C156.858 127.965 156.636 128.043 156.405 128.063C156.17 128.044 155.944 127.968 155.745 127.843C150.383 124.985 145.661 121.06 141.87 116.31C140.469 114.357 139.242 112.285 138.203 110.119C137.871 109.493 137.44 108.926 136.927 108.439V108.439Z" fill="#F4DBBD"/>
<path d="M206.266 86.217C206.565 86.0583 206.905 85.9963 207.24 86.0397C207.575 86.0831 207.888 86.2297 208.136 86.4591C208.281 86.6474 208.381 86.8654 208.43 87.0974C208.659 88.4112 208.384 89.7633 207.66 90.8829C207.494 91.207 207.268 91.496 206.992 91.7339C206.432 92.0874 205.777 92.2614 205.115 92.2328C204.967 92.2624 204.815 92.2624 204.668 92.2328C204.549 92.1781 204.444 92.098 204.36 91.998C204.148 91.7333 203.993 91.4282 203.904 91.1016C203.814 90.7749 203.792 90.4334 203.839 90.0979C203.978 88.5867 204.844 86.8406 206.266 86.217Z" fill="#F4DBBD"/>
<path d="M184.177 91.9467C184.474 92.1085 184.815 92.173 185.15 92.1308C185.486 92.0887 185.8 91.9422 186.048 91.7119C186.192 91.5238 186.292 91.3057 186.341 91.0736C186.574 89.7598 186.299 88.4063 185.571 87.2881C185.404 86.9629 185.177 86.6718 184.903 86.4298C184.344 86.0746 183.688 85.9004 183.026 85.9309C182.876 85.9121 182.723 85.9272 182.579 85.9749C182.458 86.027 182.353 86.1076 182.271 86.2097C182.059 86.4745 181.904 86.7795 181.815 87.1061C181.725 87.4328 181.703 87.7743 181.75 88.1098C181.889 89.5844 182.762 91.3304 184.177 91.9467Z" fill="#F4DBBD"/>
<path d="M174.886 109.422L164.377 122.671C166.511 129.002 173.632 137.035 173.632 137.035L174.886 109.422Z" fill="#4A78CC"/>
<path d="M207.432 89.5624C207.247 90.0264 206.947 90.4355 206.56 90.7508C206.389 90.8911 206.179 90.9732 205.958 90.9851C205.738 90.997 205.52 90.938 205.335 90.8169C205.266 90.7712 205.215 90.7041 205.188 90.6261C205.161 90.4992 205.18 90.3669 205.24 90.252L205.328 90.0172C205.349 89.9489 205.381 89.8845 205.423 89.8265C205.584 89.6137 205.914 89.6504 206.156 89.5184C206.398 89.3863 206.494 89.0488 206.626 88.7847C206.672 88.6754 206.748 88.5815 206.845 88.5139C206.943 88.4463 207.057 88.4079 207.176 88.4032C207.288 88.4267 207.389 88.4859 207.464 88.5719C207.54 88.6579 207.585 88.7661 207.594 88.8801C207.606 89.1182 207.55 89.3549 207.432 89.5624V89.5624Z" fill="#E0BE99"/>
<path d="M182.718 89.0928C182.901 89.5578 183.202 89.9673 183.591 90.2813C183.762 90.4223 183.973 90.5053 184.195 90.5185C184.416 90.5317 184.636 90.4743 184.823 90.3547C184.891 90.3059 184.943 90.2365 184.969 90.1566C184.992 90.032 184.974 89.9033 184.918 89.7898L184.83 89.555C184.81 89.4861 184.778 89.4214 184.735 89.3643C184.573 89.1515 184.243 89.1809 184.001 89.0488C183.759 88.9168 183.664 88.5793 183.532 88.3152C183.485 88.2069 183.408 88.1139 183.311 88.0465C183.214 87.9792 183.1 87.9401 182.982 87.9337C182.87 87.9534 182.767 88.0105 182.691 88.0957C182.615 88.1809 182.571 88.2893 182.564 88.4032C182.547 88.6432 182.601 88.8829 182.718 89.0928V89.0928Z" fill="#E0BE99"/>
<path d="M203.575 103.01L206.552 104.389L205.086 118.166L197.195 121.204C197.195 121.204 200.502 111.109 203.575 103.01Z" fill="url(#paint3_linear)"/>
<path d="M202.563 119.142L203.568 124.424L194.005 135.113L197.195 121.24L202.563 119.142Z" fill="url(#paint4_linear)"/>
<path d="M187.852 104.147L184.874 105.519L183.173 118.166L191.034 121.204C191.034 121.204 187.954 108.475 187.852 104.147Z" fill="url(#paint5_linear)"/>
<path d="M185.674 119.142L184.661 124.424L194.225 135.113L191.034 121.24L185.674 119.142Z" fill="url(#paint6_linear)"/>
<path d="M181.809 154.253L211.305 148.993L216.996 122.517V151.987V154.415L181.809 154.253Z" fill="url(#paint7_linear)"/>
<path d="M193.146 76.2911C193.513 78.492 193.88 80.9423 195.567 82.4829C196.522 83.2856 197.641 83.8713 198.845 84.1996C201.601 85.1052 204.468 85.6261 207.366 85.7475C207.79 83.851 207.785 81.8838 207.352 79.9894C206.919 78.0951 206.068 76.3214 204.862 74.798C203.656 73.2745 202.125 72.0396 200.381 71.1836C198.637 70.3275 196.724 69.8719 194.782 69.8498C189.729 69.7105 192.611 72.9971 193.146 76.2911Z" fill="#FC682D"/>
<path d="M236.928 151.877H77.0327V160.592H236.928V151.877Z" fill="white"/>
<path d="M197.877 204.477C196.826 205.53 196.071 206.841 195.688 208.279C195.304 209.716 195.306 211.229 195.692 212.666C196.079 214.102 196.837 215.412 197.89 216.462C198.942 217.513 200.253 218.268 201.69 218.651V220.588H99.7524C97.6249 220.588 95.5516 219.917 93.8279 218.669C92.1042 217.422 90.8181 215.662 90.1526 213.64C89.8072 212.612 89.6313 211.534 89.6319 210.449C89.631 209.119 89.8921 207.802 90.4004 206.574C90.9086 205.345 91.654 204.229 92.594 203.288C93.534 202.348 94.65 201.602 95.8783 201.094C97.1066 200.585 98.4231 200.324 99.7524 200.325H201.69V202.262C200.245 202.65 198.929 203.414 197.877 204.477V204.477Z" fill="#4A78CC"/>
<path d="M201.69 218.651V220.588H99.7524C97.6249 220.588 95.5516 219.917 93.8279 218.669C92.1042 217.422 90.8181 215.662 90.1526 213.64C94.0248 214.323 118.541 218.233 132.189 210.449L196.117 213.861C196.626 215.027 197.391 216.064 198.356 216.893C199.321 217.723 200.461 218.324 201.69 218.651V218.651Z" fill="url(#paint8_linear)"/>
<path d="M197.877 204.477C196.826 205.53 196.071 206.841 195.688 208.279C195.304 209.716 195.306 211.229 195.692 212.666C196.079 214.102 196.837 215.412 197.89 216.462C198.942 217.513 200.253 218.268 201.69 218.651V218.937H140.66C139.527 218.971 138.399 218.776 137.342 218.366C136.286 217.955 135.323 217.336 134.51 216.547C133.697 215.757 133.05 214.812 132.609 213.768C132.167 212.723 131.94 211.601 131.94 210.468C131.94 209.334 132.167 208.212 132.609 207.167C133.05 206.123 133.697 205.178 134.51 204.388C135.323 203.599 136.286 202.98 137.342 202.569C138.399 202.159 139.527 201.964 140.66 201.998H201.69V202.277C200.247 202.66 198.931 203.42 197.877 204.477V204.477Z" fill="white"/>
<path d="M259.883 225.606C258.832 226.659 258.077 227.97 257.694 229.407C257.31 230.845 257.312 232.358 257.698 233.794C258.085 235.231 258.843 236.54 259.896 237.591C260.948 238.642 262.259 239.396 263.696 239.78V241.716H161.758C159.633 241.718 157.561 241.048 155.837 239.804C154.114 238.559 152.827 236.802 152.159 234.784C151.813 233.755 151.637 232.677 151.638 231.592C151.637 230.263 151.898 228.946 152.406 227.717C152.915 226.488 153.66 225.372 154.6 224.431C155.54 223.491 156.656 222.745 157.884 222.237C159.113 221.728 160.429 221.467 161.758 221.468H263.696V223.405C262.253 223.789 260.937 224.548 259.883 225.606V225.606Z" fill="#4A78CC"/>
<path d="M263.696 239.78V241.716H161.758C159.633 241.718 157.561 241.048 155.837 239.804C154.114 238.559 152.827 236.802 152.159 234.784C156.031 235.466 180.547 239.376 194.195 231.592L258.123 235.004C258.633 236.167 259.4 237.201 260.365 238.028C261.329 238.855 262.468 239.454 263.696 239.78V239.78Z" fill="url(#paint9_linear)"/>
<path d="M259.883 225.606C258.832 226.659 258.077 227.97 257.694 229.407C257.31 230.845 257.312 232.358 257.698 233.794C258.085 235.231 258.843 236.54 259.896 237.591C260.948 238.642 262.259 239.396 263.696 239.78V240.051H202.666C201.533 240.084 200.405 239.89 199.348 239.479C198.292 239.069 197.329 238.45 196.516 237.66C195.703 236.871 195.056 235.926 194.615 234.881C194.173 233.837 193.946 232.715 193.946 231.581C193.946 230.448 194.173 229.325 194.615 228.281C195.056 227.237 195.703 226.292 196.516 225.502C197.329 224.712 198.292 224.094 199.348 223.683C200.405 223.273 201.533 223.078 202.666 223.112H263.696V223.39C262.251 223.778 260.935 224.543 259.883 225.606V225.606Z" fill="white"/>
<path d="M131.727 107.045L119.502 77.7877L133.275 107.353L131.727 107.045Z" fill="white"/>
<path d="M239.598 166.498C238.564 166.963 237.619 167.603 236.804 168.39C236.397 168.784 236.077 169.258 235.863 169.782C235.65 170.306 235.548 170.869 235.564 171.435C235.674 172.807 236.657 173.937 237.691 174.832C238.872 175.873 240.309 176.959 240.405 178.5C241.248 177.869 242.018 177.135 242.891 176.541C244.416 175.499 246.213 174.942 247.892 174.171C249.572 173.401 251.236 172.315 252.036 170.65C252.467 169.597 252.715 168.478 252.769 167.341C252.941 166.126 252.973 164.896 252.864 163.673C252.75 162.443 252.21 161.292 251.339 160.416C250.014 159.4 248.451 158.738 246.8 158.494C245.87 158.542 244.974 158.855 244.217 159.398C243.461 159.94 242.875 160.688 242.531 161.553C242.187 162.47 242.348 163.512 242.011 164.429C241.585 165.5 240.551 166.013 239.598 166.498Z" fill="#FC682D"/>
<path d="M201.588 221.967C201.256 221.961 200.927 222.01 200.612 222.114C200.455 222.168 200.317 222.266 200.213 222.396C200.109 222.526 200.044 222.682 200.025 222.847C200.039 223.009 200.092 223.165 200.18 223.3C200.269 223.436 200.389 223.548 200.531 223.625C200.803 223.801 201.118 223.904 201.39 224.087C201.618 224.277 201.864 224.447 202.123 224.593C202.587 224.733 203.085 224.715 203.538 224.542C205.651 224.027 207.839 223.89 209.999 224.139C210.209 224.164 210.42 224.164 210.63 224.139C210.938 224.05 211.218 223.884 211.443 223.657C211.669 223.429 211.834 223.148 211.921 222.84C212.353 221.527 212.481 220.132 212.295 218.761C212.292 218.608 212.254 218.457 212.185 218.321C212.097 218.215 211.987 218.129 211.862 218.072C209.816 217.059 208.694 219.084 207.19 220.074C205.518 221.179 203.587 221.832 201.588 221.967V221.967Z" fill="#FFBBAB"/>
<path d="M251.068 191.859C251.068 191.859 251.581 199.518 244.739 201.829C237.896 204.14 225.635 202.255 225.635 202.255C225.635 202.255 220.699 211.711 215.653 216.193L212.427 219.385C211.747 219.549 211.032 219.488 210.391 219.21C209.749 218.932 209.215 218.452 208.87 217.844C208.87 217.844 218.404 198.836 219.687 197.413C221.143 195.66 223.089 194.383 225.275 193.745L238.93 189.445L251.068 191.859Z" fill="#473F47"/>
<path d="M205.401 166.769L212.727 182.329L226.265 182.234L226.155 181.06L213.703 180.921L206.809 166.197L205.401 166.769Z" fill="#473F47"/>
<path d="M241.233 156.711C240.984 157.137 240.463 157.386 240.295 157.848C240.126 158.31 240.485 159 240.683 159.565C240.969 160.35 240.881 161.23 241.153 162.023C241.2 162.194 241.297 162.347 241.431 162.463C241.557 162.549 241.699 162.606 241.849 162.631C242.435 162.75 243.035 162.784 243.631 162.734C243.748 162.711 243.869 162.727 243.976 162.778C244.064 162.855 244.119 162.963 244.13 163.079C244.473 164.574 244.447 166.13 244.057 167.613C243.932 168.104 243.793 168.699 244.152 169.08C244.283 169.198 244.442 169.279 244.614 169.315C245.743 169.586 246.814 168.75 247.592 167.848C248.272 167.063 248.858 166.201 249.337 165.28C249.486 165.024 249.588 164.743 249.638 164.451C249.659 164.073 249.606 163.694 249.484 163.336C249.16 162.102 248.963 160.839 248.897 159.565C248.816 157.936 248.934 156.242 248.303 154.73C248.124 154.211 247.778 153.765 247.32 153.461C246.773 153.2 246.162 153.101 245.56 153.175C244.379 153.219 243.074 153.38 242.267 154.253C242.04 154.503 241.549 156.183 241.233 156.711Z" fill="#FFBBAB"/>
<path d="M249.542 164.554C249.542 164.554 244.665 167.077 243.191 169.058C241.717 171.039 239.312 172.499 240.258 176.248C241.204 179.996 240.053 185.719 240.053 185.719C240.053 185.719 242.172 192.387 247.386 194.075C252.6 195.762 251.163 195.226 251.163 195.226C251.163 195.226 253.928 182.865 255.013 179.424C256.099 175.983 254.265 164.003 249.542 164.554Z" fill="#4A78CC"/>
<path d="M242.803 154.085C242.9 154.888 243.282 155.631 243.881 156.176C244.46 156.711 245.171 157.085 245.773 157.599C246.09 157.836 246.342 158.149 246.508 158.509C246.673 158.869 246.745 159.265 246.719 159.66C246.949 159.569 247.204 159.56 247.44 159.637C247.675 159.713 247.877 159.869 248.01 160.078C248.071 160.226 248.091 160.388 248.066 160.546C248.042 160.704 247.974 160.852 247.87 160.973C247.764 161.092 247.632 161.185 247.485 161.246C247.338 161.307 247.179 161.334 247.02 161.326C247.636 161.578 248.164 162.006 248.538 162.558C248.956 163.174 249.161 163.908 249.542 164.554C250.013 165.206 250.603 165.763 251.28 166.197C251.584 166.402 251.836 166.676 252.014 166.997C252.153 167.495 252.322 167.985 252.52 168.464C252.953 169.075 253.418 169.663 253.913 170.225C254.583 171.206 254.966 172.354 255.021 173.54C254.987 173.189 254.987 172.835 255.021 172.484C255.143 172.279 255.26 172.066 255.373 171.846C255.56 171.462 255.705 171.058 255.805 170.643C255.946 169.691 255.973 168.725 255.886 167.767C255.886 165.713 257.822 161.846 256.267 160.086C255.648 159.567 254.988 159.098 254.295 158.685C252.923 157.547 252.732 155.545 251.867 153.989C251.483 153.305 250.967 152.703 250.349 152.219C249.731 151.736 249.023 151.38 248.266 151.172C246.242 150.593 242.531 151.231 242.803 154.085Z" fill="#FC682D"/>
<path d="M247.665 170.98C247.665 170.98 244.585 179.314 243.998 179.923C243.411 180.532 249.931 184.215 249.931 184.215C249.931 184.215 254.192 176.108 253.994 172.601C253.796 169.095 250.063 167.671 247.665 170.98Z" fill="#4A78CC"/>
<path d="M249.902 183.085C249.902 183.085 249.674 185.77 246.381 185.719L231.751 185.513C230.753 185 229.389 184.919 228.649 184.046C228.289 183.65 228.106 183.122 227.769 182.711C227.302 182.197 226.673 181.86 225.987 181.757C225.307 181.659 224.617 181.642 223.933 181.706C223.799 181.551 223.725 181.353 223.725 181.148C223.725 180.943 223.799 180.745 223.933 180.591C224.22 180.293 224.591 180.091 224.997 180.011C226.681 179.589 228.464 179.853 229.954 180.745C230.386 181.051 230.857 181.298 231.355 181.478C231.721 181.553 232.097 181.573 232.47 181.537C236.686 181.339 240.852 180.444 245.069 180.253C246.057 180.154 247.056 180.259 248.002 180.561C248.497 180.8 248.927 181.154 249.258 181.593C249.588 182.032 249.809 182.543 249.902 183.085V183.085Z" fill="#FFBBAB"/>
<path d="M202.856 183.98H200.781V221.967H202.856V183.98Z" fill="white"/>
<path d="M226.265 183.98H224.19V221.967H226.265V183.98Z" fill="white"/>
<path d="M227.409 182.329H198.346V185.631H227.409V182.329Z" fill="#4A78CC"/>
<path d="M227.409 182.329H198.346V185.631H227.409V182.329Z" fill="url(#paint10_linear)"/>
<path d="M251.654 201.374H232.741C232.295 201.374 231.934 201.736 231.934 202.181V205.475C231.934 205.921 232.295 206.282 232.741 206.282H251.654C252.1 206.282 252.461 205.921 252.461 205.475V202.181C252.461 201.736 252.1 201.374 251.654 201.374Z" fill="#473F47"/>
<path d="M235.96 206.282H232.492L230.761 222.341H234.23L235.96 206.282Z" fill="#473F47"/>
<path d="M253.605 222.341L251.31 206.282H247.841L250.723 222.341H253.605Z" fill="#473F47"/>
<path d="M258.717 174.443H255.607L248.582 201.499H251.691L258.717 174.443Z" fill="#473F47"/>
<path d="M76.4754 206.282H95.3889C95.8344 206.282 96.1956 205.921 96.1956 205.475V202.181C96.1956 201.736 95.8344 201.374 95.3889 201.374H76.4754C76.0298 201.374 75.6687 201.736 75.6687 202.181V205.475C75.6687 205.921 76.0298 206.282 76.4754 206.282Z" fill="#473F47"/>
<path d="M92.1694 206.282H95.6382L97.3689 222.341H93.9001L92.1694 206.282Z" fill="#473F47"/>
<path d="M74.5246 222.341L76.82 206.282H80.2889L77.4067 222.341H74.5246Z" fill="#473F47"/>
<path d="M69.4131 174.443H72.5225L79.5482 201.499H76.4387L69.4131 174.443Z" fill="#473F47"/>
<path d="M163.123 225.613C162.072 226.666 161.317 227.977 160.933 229.415C160.55 230.852 160.552 232.365 160.938 233.802C161.325 235.238 162.082 236.548 163.135 237.598C164.188 238.649 165.499 239.404 166.936 239.787V241.724H64.9982C62.8725 241.725 60.8006 241.056 59.0771 239.811C57.3536 238.566 56.0664 236.81 55.3984 234.791C55.053 233.762 54.8771 232.685 54.8777 231.6C54.8768 230.27 55.1379 228.953 55.6462 227.724C56.1544 226.495 56.8999 225.379 57.8398 224.439C58.7798 223.498 59.8958 222.753 61.1241 222.244C62.3524 221.736 63.6689 221.475 64.9982 221.476H166.936V223.412C165.493 223.796 164.177 224.555 163.123 225.613V225.613Z" fill="#4A78CC"/>
<path d="M166.936 239.787V241.724H64.9982C62.8725 241.725 60.8006 241.056 59.0771 239.811C57.3536 238.566 56.0664 236.81 55.3984 234.791C59.2706 235.473 83.787 239.383 97.435 231.6L161.362 235.011C161.873 236.175 162.639 237.208 163.604 238.035C164.569 238.862 165.708 239.461 166.936 239.787V239.787Z" fill="url(#paint11_linear)"/>
<path d="M163.123 225.613C162.072 226.666 161.317 227.977 160.933 229.415C160.55 230.852 160.552 232.365 160.938 233.802C161.325 235.238 162.082 236.548 163.135 237.598C164.188 238.649 165.499 239.404 166.936 239.787V240.051H105.905C104.772 240.084 103.644 239.89 102.588 239.479C101.532 239.069 100.569 238.45 99.7554 237.66C98.9424 236.871 98.296 235.926 97.8546 234.881C97.4132 233.837 97.1857 232.715 97.1857 231.581C97.1857 230.448 97.4132 229.325 97.8546 228.281C98.296 227.237 98.9424 226.292 99.7554 225.502C100.569 224.712 101.532 224.094 102.588 223.683C103.644 223.273 104.772 223.078 105.905 223.112H166.936V223.39C165.49 223.78 164.174 224.547 163.123 225.613V225.613Z" fill="white"/>
<path d="M86.6985 153.388L93.4895 156.234L86.6985 158.897V153.388Z" fill="#4A78CC"/>
<path d="M231.274 155.325H96.2396V157.137H231.274V155.325Z" fill="#4A78CC"/>
<path d="M78.0374 192.065C78.0374 192.065 77.5241 199.724 84.3664 202.034C89.2506 203.685 94.8535 203.326 99.9137 202.878C100.728 202.805 102.187 202.394 102.906 202.937C103.918 203.67 103.412 205.717 103.383 206.825C103.317 209.231 103.258 211.63 103.192 214.037C103.192 215.144 103.192 216.282 103.104 217.382C103.016 218.482 102.745 219.774 102.664 220.991C102.653 221.042 102.654 221.095 102.665 221.145C102.677 221.196 102.699 221.243 102.73 221.285C102.772 221.318 102.82 221.342 102.872 221.356C102.924 221.37 102.978 221.373 103.031 221.366L111.992 220.977C112.089 220.988 112.186 220.961 112.264 220.903C112.396 220.779 112.308 220.559 112.205 220.412C111.281 219.22 109.993 218.363 108.538 217.969C108.195 217.883 107.868 217.742 107.57 217.551C106.639 216.817 107.409 215.24 107.621 214.352L108.545 210.493L110.364 202.908C110.907 200.663 111.039 198.953 109.308 197.391C107.751 195.847 105.866 194.673 103.793 193.957L90.1453 189.658L78.0374 192.065Z" fill="#473F47"/>
<path d="M131.962 166.769L124.635 182.329L111.098 182.234L111.208 181.06L123.653 180.921L130.546 166.197L131.962 166.769Z" fill="#473F47"/>
<path d="M96.1222 156.711C96.3789 157.137 96.8996 157.386 97.0683 157.848C97.2369 158.31 96.8776 159 96.6723 159.565C96.3936 160.35 96.4816 161.23 96.2102 162.023C96.163 162.194 96.066 162.347 95.9316 162.463C95.8055 162.547 95.6631 162.605 95.5135 162.631C94.9274 162.75 94.3274 162.784 93.7315 162.734C93.6148 162.711 93.4939 162.727 93.3868 162.778C93.2993 162.855 93.2443 162.963 93.2328 163.079C92.8878 164.573 92.9104 166.129 93.2988 167.613C93.4308 168.104 93.5701 168.699 93.2108 169.08C93.0803 169.198 92.9209 169.279 92.7487 169.315C91.6194 169.586 90.5486 168.75 89.7713 167.848C89.0906 167.063 88.5047 166.201 88.0259 165.28C87.8764 165.024 87.7745 164.743 87.7252 164.451C87.7041 164.073 87.7564 163.694 87.8792 163.336C88.2005 162.102 88.3946 160.838 88.4586 159.565C88.5466 157.936 88.4586 156.242 89.0526 154.73C89.2348 154.21 89.5826 153.764 90.0426 153.461C90.5877 153.201 91.1958 153.101 91.7954 153.175C92.9834 153.219 94.2815 153.38 95.0882 154.253C95.3229 154.503 95.8142 156.183 96.1222 156.711Z" fill="#FFBBAB"/>
<path d="M87.7912 164.583H87.8939C90.05 165.118 93.1888 167.085 93.8928 169.271C94.7802 172.015 95.3595 175.705 94.7215 178.544C94.2888 180.473 93.2548 182.212 92.6754 184.105C92.1841 185.667 91.9787 187.325 91.3334 188.829C90.5277 190.578 89.1713 192.014 87.4719 192.917C85.7724 193.821 83.8238 194.143 81.9243 193.833C80.9163 193.661 79.9664 193.243 79.1595 192.615C78.4275 191.933 77.8623 191.093 77.5074 190.158C77.1526 189.222 77.0178 188.218 77.1134 187.223C77.3291 185.232 77.8511 183.287 78.6608 181.456L82.0196 172.689C82.8337 170.591 84.8064 163.989 87.7912 164.583Z" fill="#4A78CC"/>
<path d="M86.0531 186.144C86.2418 186.459 86.3664 186.808 86.4198 187.171C86.4297 187.439 86.3976 187.706 86.3245 187.964C85.979 189.389 85.8334 190.856 85.8918 192.321C85.8691 192.586 85.9507 192.849 86.1191 193.055C86.3093 193.191 86.538 193.263 86.7718 193.26C87.6105 193.397 88.4703 193.311 89.2653 193.011C90.1212 192.473 90.766 191.657 91.0913 190.7C92.1658 188.038 92.9836 185.279 93.5335 182.461C93.6719 182.011 93.7168 181.536 93.6655 181.068C93.5753 180.719 93.4176 180.393 93.2011 180.106C92.9847 179.819 92.7138 179.577 92.4041 179.395C91.8174 178.991 91.15 178.698 90.5853 178.258C89.4706 177.407 88.6492 175.859 87.1312 175.661C86.6065 175.622 86.085 175.769 85.6565 176.074C85.2281 176.379 84.9196 176.825 84.7844 177.333C83.787 179.967 84.8577 183.731 86.0531 186.144Z" fill="url(#paint12_linear)"/>
<path d="M89.7053 170.98C89.7053 170.98 92.7854 179.314 93.3721 179.923C93.9588 180.532 87.4465 184.215 87.4465 184.215C87.4465 184.215 83.1783 176.108 83.3837 172.601C83.589 169.095 87.2998 167.671 89.7053 170.98Z" fill="#4A78CC"/>
<path d="M87.4612 183.085C87.4612 183.085 87.6885 185.77 90.974 185.719L105.641 185.513C106.631 185 107.995 184.919 108.743 184.046C109.095 183.65 109.279 183.122 109.623 182.711C110.09 182.197 110.719 181.86 111.406 181.757C112.086 181.659 112.775 181.642 113.459 181.706C113.592 181.55 113.665 181.353 113.665 181.148C113.665 180.944 113.592 180.746 113.459 180.591C113.171 180.295 112.8 180.093 112.396 180.011C110.711 179.589 108.928 179.853 107.438 180.745C107.006 181.051 106.535 181.298 106.037 181.478C105.671 181.553 105.295 181.573 104.923 181.537C100.706 181.339 96.5402 180.444 92.3234 180.253C91.3348 180.156 90.3368 180.261 89.3899 180.561C88.889 180.795 88.4521 181.147 88.1162 181.587C87.7804 182.026 87.5557 182.54 87.4612 183.085V183.085Z" fill="#FFBBAB"/>
<path d="M108.883 183.98H106.807V221.967H108.883V183.98Z" fill="white"/>
<path d="M132.299 183.98H130.224V221.967H132.299V183.98Z" fill="white"/>
<path d="M133.436 182.329H104.373V185.631H133.436V182.329Z" fill="#4A78CC"/>
<path d="M133.436 182.329H104.373V185.631H133.436V182.329Z" fill="url(#paint13_linear)"/>
<path d="M95.1248 150.05C94.7722 149.508 94.2971 149.056 93.7379 148.731C93.1787 148.406 92.551 148.217 91.9054 148.179C91.4727 148.114 91.0312 148.142 90.6102 148.261C90.1892 148.38 89.7982 148.587 89.4633 148.869C89.1993 149.133 89.0012 149.463 88.7299 149.72C87.9452 150.453 86.7351 150.365 85.7964 150.813C84.9482 151.254 84.2965 151.997 83.9704 152.896C83.6513 153.79 83.4732 154.728 83.4423 155.677C83.3378 156.544 83.3849 157.423 83.5817 158.274C83.7695 158.903 84.1003 159.48 84.5482 159.959C84.996 160.439 85.5487 160.809 86.1631 161.039C86.4549 161.109 86.7246 161.25 86.9478 161.45C87.1238 161.648 87.1825 161.935 87.3512 162.14C87.7692 162.653 88.6052 162.463 89.1259 162.059C89.5779 161.582 90.0937 161.17 90.6587 160.834L89.1919 158.846C89.0034 158.648 88.8961 158.386 88.8912 158.112C88.9356 157.954 89.0321 157.815 89.1651 157.717C89.2981 157.62 89.46 157.571 89.6246 157.577C89.9548 157.606 90.2663 157.743 90.512 157.966C90.7247 158.142 91.0473 158.34 91.2453 158.134C91.3056 158.07 91.3419 157.987 91.348 157.9C91.5094 156.917 90.6147 155.941 90.8787 154.965C90.8995 154.876 90.9484 154.797 91.018 154.738C91.1214 154.683 91.2413 154.667 91.3553 154.694C91.9397 154.789 92.5344 154.804 93.1228 154.738C94.9782 154.393 96.0489 151.642 95.1248 150.05Z" fill="#473F47"/>
<path d="M92.4701 170.753C92.4701 171.112 92.4701 171.567 92.096 171.655C91.9492 171.68 91.7983 171.659 91.6634 171.596C91.1019 171.399 90.5692 171.127 90.0793 170.789C90.2058 173.825 90.6208 176.841 91.3187 179.798C91.348 179.967 91.413 180.127 91.5094 180.268C91.6152 180.369 91.7408 180.448 91.8784 180.498C92.0159 180.549 92.1625 180.57 92.3087 180.561C93.031 180.599 93.7535 180.494 94.4355 180.253C92.6167 177.231 92.5361 173.394 93.5628 170.026C93.7782 169.54 93.8347 168.999 93.7241 168.478C93.5225 168.118 93.2471 167.805 92.916 167.558C92.5849 167.312 92.2055 167.138 91.8027 167.048C91.5827 168.156 92.3821 169.623 92.4701 170.753Z" fill="url(#paint14_linear)"/>
</g>
<defs>
<linearGradient id="paint0_linear" x1="9223.26" y1="8298.2" x2="15549.3" y2="5765.53" gradientUnits="userSpaceOnUse">
<stop offset="0.01"/>
<stop offset="0.08" stop-opacity="0.69"/>
<stop offset="0.21" stop-opacity="0.32"/>
<stop offset="1" stop-opacity="0"/>
</linearGradient>
<linearGradient id="paint1_linear" x1="-110481" y1="15401.3" x2="-110826" y2="5811.66" gradientUnits="userSpaceOnUse">
<stop offset="0.01"/>
<stop offset="0.08" stop-opacity="0.69"/>
<stop offset="0.21" stop-opacity="0.32"/>
<stop offset="1" stop-opacity="0"/>
</linearGradient>
<linearGradient id="paint2_linear" x1="-14650.6" y1="3571.76" x2="-14392" y2="3534.84" gradientUnits="userSpaceOnUse">
<stop offset="0.01"/>
<stop offset="0.08" stop-opacity="0.69"/>
<stop offset="0.21" stop-opacity="0.32"/>
<stop offset="1" stop-opacity="0"/>
</linearGradient>
<linearGradient id="paint3_linear" x1="-21416.7" y1="3856.05" x2="-21820.5" y2="3638.09" gradientUnits="userSpaceOnUse">
<stop offset="0.01"/>
<stop offset="0.08" stop-opacity="0.69"/>
<stop offset="0.21" stop-opacity="0.32"/>
<stop offset="1" stop-opacity="0"/>
</linearGradient>
<linearGradient id="paint4_linear" x1="-21947" y1="3596.46" x2="-22264.4" y2="3464.24" gradientUnits="userSpaceOnUse">
<stop offset="0.01"/>
<stop offset="0.08" stop-opacity="0.69"/>
<stop offset="0.21" stop-opacity="0.32"/>
<stop offset="1" stop-opacity="0"/>
</linearGradient>
<linearGradient id="paint5_linear" x1="-4431.46" y1="3652.81" x2="-4035.56" y2="3461.39" gradientUnits="userSpaceOnUse">
<stop offset="0.01"/>
<stop offset="0.08" stop-opacity="0.69"/>
<stop offset="0.21" stop-opacity="0.32"/>
<stop offset="1" stop-opacity="0"/>
</linearGradient>
<linearGradient id="paint6_linear" x1="-5573.34" y1="3596.46" x2="-5255.83" y2="3464.26" gradientUnits="userSpaceOnUse">
<stop offset="0.01"/>
<stop offset="0.08" stop-opacity="0.69"/>
<stop offset="0.21" stop-opacity="0.32"/>
<stop offset="1" stop-opacity="0"/>
</linearGradient>
<linearGradient id="paint7_linear" x1="-85491.2" y1="6083.17" x2="-86134.5" y2="11495.3" gradientUnits="userSpaceOnUse">
<stop offset="0.01"/>
<stop offset="0.08" stop-opacity="0.69"/>
<stop offset="0.21" stop-opacity="0.32"/>
<stop offset="1" stop-opacity="0"/>
</linearGradient>
<linearGradient id="paint8_linear" x1="28241.1" y1="2630.35" x2="28274.3" y2="5695.86" gradientUnits="userSpaceOnUse">
<stop offset="0.01"/>
<stop offset="0.08" stop-opacity="0.69"/>
<stop offset="0.21" stop-opacity="0.32"/>
<stop offset="1" stop-opacity="0"/>
</linearGradient>
<linearGradient id="paint9_linear" x1="37734.7" y1="2939.57" x2="37767.8" y2="6000.63" gradientUnits="userSpaceOnUse">
<stop offset="0.01"/>
<stop offset="0.08" stop-opacity="0.69"/>
<stop offset="0.21" stop-opacity="0.32"/>
<stop offset="1" stop-opacity="0"/>
</linearGradient>
<linearGradient id="paint10_linear" x1="8628.15" y1="836.716" x2="8628.36" y2="1045.87" gradientUnits="userSpaceOnUse">
<stop offset="0.01"/>
<stop offset="0.08" stop-opacity="0.69"/>
<stop offset="0.21" stop-opacity="0.32"/>
<stop offset="1" stop-opacity="0"/>
</linearGradient>
<linearGradient id="paint11_linear" x1="22921.7" y1="2939.57" x2="22954.8" y2="6000.64" gradientUnits="userSpaceOnUse">
<stop offset="0.01"/>
<stop offset="0.08" stop-opacity="0.69"/>
<stop offset="0.21" stop-opacity="0.32"/>
<stop offset="1" stop-opacity="0"/>
</linearGradient>
<linearGradient id="paint12_linear" x1="1645.05" y1="5425.74" x2="2130.01" y2="5395.86" gradientUnits="userSpaceOnUse">
<stop offset="0.01"/>
<stop offset="0.08" stop-opacity="0.69"/>
<stop offset="0.21" stop-opacity="0.32"/>
<stop offset="1" stop-opacity="0"/>
</linearGradient>
<linearGradient id="paint13_linear" x1="4813.78" y1="889.405" x2="4813.89" y2="978.187" gradientUnits="userSpaceOnUse">
<stop offset="0.01"/>
<stop offset="0.08" stop-opacity="0.69"/>
<stop offset="0.21" stop-opacity="0.32"/>
<stop offset="1" stop-opacity="0"/>
</linearGradient>
<linearGradient id="paint14_linear" x1="1043.61" y1="4077.94" x2="693.425" y2="4043.76" gradientUnits="userSpaceOnUse">
<stop offset="0.01"/>
<stop offset="0.08" stop-opacity="0.69"/>
<stop offset="0.21" stop-opacity="0.32"/>
<stop offset="1" stop-opacity="0"/>
</linearGradient>
<clipPath id="clip0">
<rect width="288" height="236" fill="white" transform="translate(0 20)"/>
</clipPath>
</defs>
</svg>
